<svg width="26" height="25" viewBox="0 0 26 25" fill="none" xmlns="http://www.w3.org/2000/svg">
<path d="M5.70801 22.9168C5.70866 23.4692 5.92837 23.9987 6.31893 24.3892C6.70948 24.7798 7.23901 24.9995 7.79134 25.0002H18.208C18.7603 24.9995 19.2899 24.7798 19.6804 24.3892C20.071 23.9987 20.2907 23.4692 20.2913 22.9168V22.0054H5.70801V22.9168Z" fill="#1640C1"/>
<path d="M20.2913 2.08333C20.2907 1.531 20.071 1.00148 19.6804 0.610917C19.2899 0.220358 18.7603 0.00065473 18.208 0L7.79134 0C7.23901 0.00065473 6.70948 0.220358 6.31893 0.610917C5.92837 1.00148 5.70866 1.531 5.70801 2.08333V3.125H20.2913V2.08333Z" fill="#1640C1"/>
<path d="M25.2101 6.70052L22.0851 3.44531L20.5822 4.88802L21.8896 6.25H20.292V8.33333H22.002L20.613 9.66459L22.0544 11.1688L25.1794 8.17396C25.2782 8.07926 25.3574 7.96602 25.4124 7.8407C25.4674 7.71538 25.4972 7.58045 25.5001 7.44361C25.5029 7.30677 25.4788 7.17071 25.429 7.04321C25.3793 6.91571 25.3049 6.79926 25.2101 6.70052Z" fill="#1640C1"/>
<path d="M17.1663 6.24984H20.2913V4.1665H5.70801V16.6665H8.83301V18.7498H5.70801V20.8332H20.2913V8.33317H17.1663V6.24984ZM16.1247 10.4165H12.4788C12.3407 10.4165 12.2082 10.4714 12.1106 10.5691C12.0129 10.6667 11.958 10.7992 11.958 10.9373C11.958 11.0755 12.0129 11.2079 12.1106 11.3056C12.2082 11.4033 12.3407 11.4582 12.4788 11.4582H13.5205C14.1663 11.4575 14.7893 11.6969 15.2686 12.1297C15.7479 12.5626 16.0492 13.1581 16.1141 13.8006C16.179 14.4432 16.0029 15.0869 15.6198 15.6069C15.2368 16.1268 14.6742 16.4859 14.0413 16.6144V17.7082H11.958V16.6665H9.87467V14.5832H13.5205C13.6586 14.5832 13.7911 14.5283 13.8888 14.4306C13.9865 14.3329 14.0413 14.2005 14.0413 14.0623C14.0413 13.9242 13.9865 13.7917 13.8888 13.6941C13.7911 13.5964 13.6586 13.5415 13.5205 13.5415H12.4788C11.833 13.5422 11.21 13.3028 10.7308 12.87C10.2515 12.4371 9.95014 11.8416 9.88524 11.1991C9.82034 10.5565 9.9965 9.91278 10.3795 9.39282C10.7626 8.87286 11.3251 8.51377 11.958 8.38525V7.2915H14.0413V8.33317H16.1247V10.4165Z" fill="#1640C1"/>
<path d="M3.99828 16.6665L5.38734 15.3352L3.94593 13.8311L0.820931 16.8258C0.722115 16.9205 0.642929 17.0338 0.587901 17.1591C0.532873 17.2844 0.50308 17.4194 0.500226 17.5562C0.497373 17.693 0.521513 17.8291 0.571269 17.9566C0.621025 18.0841 0.69542 18.2005 0.790202 18.2993L3.9152 21.5545L5.41807 20.1118L4.11064 18.7498H5.7083V16.6665H3.99828Z" fill="#1640C1"/>
</svg>
