<svg width="16" height="17" viewBox="0 0 16 17" fill="none" xmlns="http://www.w3.org/2000/svg">
<path d="M13.6 6.9C13.3878 6.9 13.1843 6.98429 13.0343 7.13432C12.8843 7.28434 12.8 7.48783 12.8 7.7V10.404L11.616 9.22C11.1979 8.80524 10.6329 8.5725 10.044 8.5725C9.4551 8.5725 8.89006 8.80524 8.472 9.22L7.912 9.788L5.928 7.796C5.50994 7.38124 4.9449 7.1485 4.356 7.1485C3.7671 7.1485 3.20206 7.38124 2.784 7.796L1.6 8.988V4.5C1.6 4.28783 1.68429 4.08434 1.83431 3.93431C1.98434 3.78429 2.18783 3.7 2.4 3.7H8.8C9.01217 3.7 9.21566 3.61571 9.36569 3.46569C9.51571 3.31566 9.6 3.11217 9.6 2.9C9.6 2.68783 9.51571 2.48434 9.36569 2.33431C9.21566 2.18429 9.01217 2.1 8.8 2.1H2.4C1.76348 2.1 1.15303 2.35286 0.702944 2.80294C0.252856 3.25303 0 3.86348 0 4.5V14.276C0.00210804 14.8652 0.237099 15.4297 0.653723 15.8463C1.07035 16.2629 1.63481 16.4979 2.224 16.5H12.176C12.3928 16.4983 12.6082 16.466 12.816 16.404C13.278 16.2744 13.6846 15.9969 13.9737 15.6139C14.2627 15.231 14.4181 14.7638 14.416 14.284V7.7C14.416 7.59358 14.3948 7.48823 14.3536 7.39011C14.3124 7.29199 14.252 7.20308 14.1761 7.12858C14.1001 7.05408 14.01 6.99549 13.9111 6.95624C13.8121 6.91699 13.7064 6.89787 13.6 6.9ZM2.4 14.9C2.18783 14.9 1.98434 14.8157 1.83431 14.6657C1.68429 14.5157 1.6 14.3122 1.6 14.1V11.244L3.912 8.932C4.02892 8.81573 4.18711 8.75047 4.352 8.75047C4.51689 8.75047 4.67508 8.81573 4.792 8.932L10.768 14.9H2.4ZM12.8 14.1C12.7949 14.2549 12.7448 14.405 12.656 14.532L9.04 10.9L9.608 10.34C9.66535 10.2815 9.73381 10.235 9.80937 10.2032C9.88492 10.1715 9.96605 10.1551 10.048 10.1551C10.13 10.1551 10.2111 10.1715 10.2866 10.2032C10.3622 10.235 10.4306 10.2815 10.488 10.34L12.8 12.668V14.1ZM15.2 2.1H14.4V1.3C14.4 1.08783 14.3157 0.884344 14.1657 0.734315C14.0157 0.584285 13.8122 0.5 13.6 0.5C13.3878 0.5 13.1843 0.584285 13.0343 0.734315C12.8843 0.884344 12.8 1.08783 12.8 1.3V2.1H12C11.7878 2.1 11.5843 2.18429 11.4343 2.33431C11.2843 2.48434 11.2 2.68783 11.2 2.9C11.2 3.11217 11.2843 3.31566 11.4343 3.46569C11.5843 3.61571 11.7878 3.7 12 3.7H12.8V4.5C12.8 4.71217 12.8843 4.91566 13.0343 5.06569C13.1843 5.21571 13.3878 5.3 13.6 5.3C13.8122 5.3 14.0157 5.21571 14.1657 5.06569C14.3157 4.91566 14.4 4.71217 14.4 4.5V3.7H15.2C15.4122 3.7 15.6157 3.61571 15.7657 3.46569C15.9157 3.31566 16 3.11217 16 2.9C16 2.68783 15.9157 2.48434 15.7657 2.33431C15.6157 2.18429 15.4122 2.1 15.2 2.1Z" fill="#6C7278"/>
</svg>
