<svg width="26" height="25" viewBox="0 0 26 25" fill="none" xmlns="http://www.w3.org/2000/svg">
<path d="M22.9935 20.2071C23.6126 19.0812 23.8779 17.7592 23.7479 16.4481C23.6179 15.137 23.0999 13.9107 22.2749 12.9611C21.45 12.0115 20.3647 11.3923 19.1888 11.2003C18.013 11.0083 16.813 11.2544 15.7766 11.9001C14.7402 12.5457 13.9259 13.5545 13.4611 14.7685C12.9964 15.9825 12.9074 17.3333 13.2081 18.6094C13.5088 19.8855 14.1823 21.015 15.123 21.8211C16.0638 22.6271 17.2188 23.0643 18.4073 23.0642C19.3944 23.059 20.3617 22.7571 21.2065 22.1904L23.3559 24.5898C23.472 24.7197 23.6103 24.8229 23.7625 24.8933C23.9148 24.9637 24.0781 25 24.2431 25C24.4081 25 24.5714 24.9637 24.7237 24.8933C24.876 24.8229 25.0142 24.7197 25.1304 24.5898C25.2475 24.4608 25.3405 24.3074 25.4039 24.1384C25.4673 23.9694 25.5 23.7881 25.5 23.6051C25.5 23.422 25.4673 23.2407 25.4039 23.0717C25.3405 22.9027 25.2475 22.7493 25.1304 22.6204L22.9935 20.2071ZM20.4942 19.4166C19.9434 19.9991 19.2118 20.324 18.451 20.324C17.6903 20.324 16.9586 19.9991 16.4079 19.4166C15.8684 18.8138 15.5656 17.9987 15.5656 17.149C15.5656 16.2994 15.8684 15.4842 16.4079 14.8814C16.676 14.5833 16.9945 14.3468 17.3451 14.1854C17.6957 14.024 18.0715 13.9409 18.451 13.9409C18.8306 13.9409 19.2064 14.024 19.557 14.1854C19.9076 14.3468 20.2261 14.5833 20.4942 14.8814C21.0337 15.4842 21.3365 16.2994 21.3365 17.149C21.3365 17.9987 21.0337 18.8138 20.4942 19.4166ZM21.7438 0H4.24891C3.25464 0 2.30109 0.438359 1.59803 1.21864C0.894974 1.99893 0.5 3.05722 0.5 4.1607V16.6428C0.5 17.7463 0.894974 18.8046 1.59803 19.5849C2.30109 20.3652 3.25464 20.8035 4.24891 20.8035H9.24746C9.57889 20.8035 9.89674 20.6574 10.1311 20.3973C10.3654 20.1372 10.4971 19.7844 10.4971 19.4166C10.4971 19.0488 10.3654 18.696 10.1311 18.4359C9.89674 18.1758 9.57889 18.0297 9.24746 18.0297H4.24891C3.91749 18.0297 3.59964 17.8836 3.36529 17.6235C3.13093 17.3634 2.99928 17.0106 2.99928 16.6428V8.32141H22.9935V9.70831C22.9935 10.0761 23.1251 10.4289 23.3595 10.689C23.5938 10.9491 23.9117 11.0952 24.2431 11.0952C24.5745 11.0952 24.8924 10.9491 25.1267 10.689C25.3611 10.4289 25.4928 10.0761 25.4928 9.70831V4.1607C25.4928 3.05722 25.0978 1.99893 24.3947 1.21864C23.6917 0.438359 22.7381 0 21.7438 0ZM22.9935 5.5476H2.99928V4.1607C2.99928 3.79287 3.13093 3.44011 3.36529 3.18002C3.59964 2.91992 3.91749 2.7738 4.24891 2.7738H21.7438C22.0753 2.7738 22.3931 2.91992 22.6275 3.18002C22.8618 3.44011 22.9935 3.79287 22.9935 4.1607V5.5476ZM10.4971 11.0952H6.74819C6.41676 11.0952 6.09891 11.2413 5.86456 11.5014C5.63021 11.7615 5.49855 12.1143 5.49855 12.4821C5.49855 12.8499 5.63021 13.2027 5.86456 13.4628C6.09891 13.7229 6.41676 13.869 6.74819 13.869H10.4971C10.8285 13.869 11.1464 13.7229 11.3807 13.4628C11.6151 13.2027 11.7467 12.8499 11.7467 12.4821C11.7467 12.1143 11.6151 11.7615 11.3807 11.5014C11.1464 11.2413 10.8285 11.0952 10.4971 11.0952Z" fill="#1640C1"/>
</svg>
