<svg width="26" height="25" viewBox="0 0 26 25" fill="none" xmlns="http://www.w3.org/2000/svg">
<path d="M8.3125 10H9.875C10.2894 10 10.6868 9.8683 10.9799 9.63388C11.2729 9.39946 11.4375 9.08152 11.4375 8.75C11.4375 8.41848 11.2729 8.10054 10.9799 7.86612C10.6868 7.6317 10.2894 7.5 9.875 7.5H8.3125C7.8981 7.5 7.50067 7.6317 7.20765 7.86612C6.91462 8.10054 6.75 8.41848 6.75 8.75C6.75 9.08152 6.91462 9.39946 7.20765 9.63388C7.50067 9.8683 7.8981 10 8.3125 10ZM8.3125 12.5C7.8981 12.5 7.50067 12.6317 7.20765 12.8661C6.91462 13.1005 6.75 13.4185 6.75 13.75C6.75 14.0815 6.91462 14.3995 7.20765 14.6339C7.50067 14.8683 7.8981 15 8.3125 15H17.6875C18.1019 15 18.4993 14.8683 18.7924 14.6339C19.0854 14.3995 19.25 14.0815 19.25 13.75C19.25 13.4185 19.0854 13.1005 18.7924 12.8661C18.4993 12.6317 18.1019 12.5 17.6875 12.5H8.3125ZM25.5 8.675C25.4837 8.56017 25.4523 8.44704 25.4062 8.3375V8.225C25.3311 8.09647 25.2309 7.97833 25.1094 7.875L15.7344 0.375C15.6052 0.27777 15.4575 0.197601 15.2969 0.1375C15.2502 0.1322 15.2029 0.1322 15.1562 0.1375C14.9975 0.0646766 14.8222 0.0179303 14.6406 0H5.1875C3.9443 0 2.75201 0.395088 1.87294 1.09835C0.99386 1.80161 0.5 2.75544 0.5 3.75V21.25C0.5 22.2446 0.99386 23.1984 1.87294 23.9017C2.75201 24.6049 3.9443 25 5.1875 25H20.8125C22.0557 25 23.248 24.6049 24.1271 23.9017C25.0061 23.1984 25.5 22.2446 25.5 21.25V8.75C25.5 8.75 25.5 8.75 25.5 8.675ZM16.125 4.2625L20.1719 7.5H17.6875C17.2731 7.5 16.8757 7.3683 16.5826 7.13388C16.2896 6.89946 16.125 6.58152 16.125 6.25V4.2625ZM22.375 21.25C22.375 21.5815 22.2104 21.8995 21.9174 22.1339C21.6243 22.3683 21.2269 22.5 20.8125 22.5H5.1875C4.7731 22.5 4.37567 22.3683 4.08265 22.1339C3.78962 21.8995 3.625 21.5815 3.625 21.25V3.75C3.625 3.41848 3.78962 3.10054 4.08265 2.86612C4.37567 2.6317 4.7731 2.5 5.1875 2.5H13V6.25C13 7.24456 13.4939 8.19839 14.3729 8.90165C15.252 9.60491 16.4443 10 17.6875 10H22.375V21.25ZM17.6875 17.5H8.3125C7.8981 17.5 7.50067 17.6317 7.20765 17.8661C6.91462 18.1005 6.75 18.4185 6.75 18.75C6.75 19.0815 6.91462 19.3995 7.20765 19.6339C7.50067 19.8683 7.8981 20 8.3125 20H17.6875C18.1019 20 18.4993 19.8683 18.7924 19.6339C19.0854 19.3995 19.25 19.0815 19.25 18.75C19.25 18.4185 19.0854 18.1005 18.7924 17.8661C18.4993 17.6317 18.1019 17.5 17.6875 17.5Z" fill="#1640C1"/>
</svg>
