<svg width="18" height="17" viewBox="0 0 18 17" fill="none" xmlns="http://www.w3.org/2000/svg">
<path d="M4.04102 15.5832C4.04146 15.9588 4.19086 16.3188 4.45644 16.5844C4.72202 16.85 5.0821 16.9994 5.45769 16.9998H12.541C12.9166 16.9994 13.2767 16.85 13.5423 16.5844C13.8079 16.3188 13.9573 15.9588 13.9577 15.5832V14.9634H4.04102V15.5832Z" fill="#1640C1"/>
<path d="M13.9577 1.41667C13.9573 1.04108 13.8079 0.681006 13.5423 0.415425C13.2767 0.149844 12.9166 0.000445218 12.541 0L5.45769 0C5.0821 0.000445218 4.72202 0.149844 4.45644 0.415425C4.19086 0.681006 4.04146 1.04108 4.04102 1.41667V2.12501H13.9577V1.41667Z" fill="#1640C1"/>
<path d="M17.3033 4.55632L15.1783 2.34277L14.1563 3.32382L15.0454 4.24997H13.959V5.66664H15.1218L14.1772 6.57189L15.1574 7.59473L17.2824 5.55826C17.3496 5.49387 17.4034 5.41686 17.4409 5.33164C17.4783 5.24643 17.4985 5.15467 17.5005 5.06162C17.5024 4.96857 17.486 4.87605 17.4522 4.78935C17.4183 4.70265 17.3678 4.62346 17.3033 4.55632Z" fill="#1640C1"/>
<path d="M11.8327 4.25017H13.9577V2.8335H4.04102V11.3335H6.16602V12.7502H4.04102V14.1669H13.9577V5.66684H11.8327V4.25017ZM11.1244 7.08351H8.64519C8.55126 7.08351 8.46118 7.12082 8.39476 7.18724C8.32834 7.25366 8.29103 7.34374 8.29103 7.43767C8.29103 7.53161 8.32834 7.62169 8.39476 7.68811C8.46118 7.75453 8.55126 7.79184 8.64519 7.79184H9.35353C9.79268 7.7914 10.2163 7.95415 10.5422 8.2485C10.8681 8.54284 11.073 8.94778 11.1172 9.38471C11.1613 9.82164 11.0415 10.2594 10.7811 10.613C10.5206 10.9665 10.1381 11.2107 9.7077 11.2981V12.0419H8.29103V11.3335H6.87436V9.91685H9.35353C9.44746 9.91685 9.53754 9.87953 9.60396 9.81312C9.67038 9.7467 9.7077 9.65661 9.7077 9.56268C9.7077 9.46875 9.67038 9.37867 9.60396 9.31225C9.53754 9.24583 9.44746 9.20851 9.35353 9.20851H8.64519C8.20604 9.20895 7.78239 9.04621 7.45649 8.75186C7.13058 8.45751 6.92568 8.05257 6.88154 7.61564C6.83741 7.17872 6.9572 6.74098 7.21766 6.3874C7.47811 6.03383 7.86066 5.78964 8.29103 5.70225V4.9585H9.7077V5.66684H11.1244V7.08351Z" fill="#1640C1"/>
<path d="M2.87883 11.3334L3.8234 10.4281L2.84324 9.40527L0.718234 11.4417C0.651038 11.5061 0.597192 11.5831 0.559773 11.6684C0.522354 11.7536 0.502095 11.8453 0.500154 11.9384C0.498213 12.0314 0.514629 12.1239 0.548463 12.2106C0.582297 12.2974 0.632886 12.3765 0.697338 12.4437L2.82234 14.6572L3.84429 13.6762L2.95524 12.75H4.04165V11.3334H2.87883Z" fill="#1640C1"/>
</svg>
