<svg width="31" height="31" viewBox="0 0 31 31" fill="none" xmlns="http://www.w3.org/2000/svg">
<path d="M22.9574 7.59019C22.471 7.10375 21.6852 7.10375 21.1988 7.59019L15.0996 13.6769L9.00044 7.57772C8.514 7.09128 7.72822 7.09128 7.24178 7.57772C6.75534 8.06415 6.75534 8.84994 7.24178 9.33637L13.3409 15.4355L7.24178 21.5347C6.75534 22.0211 6.75534 22.8069 7.24178 23.2934C7.72822 23.7798 8.514 23.7798 9.00044 23.2934L15.0996 17.1942L21.1988 23.2934C21.6852 23.7798 22.471 23.7798 22.9574 23.2934C23.4439 22.8069 23.4439 22.0211 22.9574 21.5347L16.8583 15.4355L22.9574 9.33637C23.4314 8.86241 23.4314 8.06415 22.9574 7.59019Z" fill="#0B0B0B"/>
</svg>
