<svg width="68" height="62" viewBox="0 0 68 62" fill="none" xmlns="http://www.w3.org/2000/svg">
<path d="M67.2404 31.3493C67.2404 48.1628 52.1899 61.7928 33.6241 61.7928C15.0583 61.7928 0.0078125 48.1628 0.0078125 31.3493C0.0078125 14.5358 15.0583 0.905762 33.6241 0.905762C52.1899 0.905762 67.2404 14.5358 67.2404 31.3493ZM5.8815 31.3493C5.8815 45.225 18.3023 56.4735 33.6241 56.4735C48.9459 56.4735 61.3667 45.225 61.3667 31.3493C61.3667 17.4736 48.9459 6.22508 33.6241 6.22508C18.3023 6.22508 5.8815 17.4736 5.8815 31.3493Z" fill="#EFEFEF"/>
<path d="M33.6239 0.905762C35.2744 0.905762 36.9227 1.01585 38.5554 1.23512L37.6937 6.49689C36.3463 6.31593 34.9861 6.22508 33.6239 6.22508V0.905762Z" fill="#0061FF"/>
</svg>
