<svg width="68" height="62" viewBox="0 0 68 62" fill="none" xmlns="http://www.w3.org/2000/svg">
<path d="M67.2404 30.7765C67.2404 47.59 52.1899 61.22 33.6241 61.22C15.0583 61.22 0.0078125 47.59 0.0078125 30.7765C0.0078125 13.963 15.0583 0.333008 33.6241 0.333008C52.1899 0.333008 67.2404 13.963 67.2404 30.7765ZM5.8815 30.7765C5.8815 44.6522 18.3023 55.9007 33.6241 55.9007C48.9459 55.9007 61.3667 44.6522 61.3667 30.7765C61.3667 16.9008 48.9459 5.65232 33.6241 5.65232C18.3023 5.65232 5.8815 16.9008 5.8815 30.7765Z" fill="#EFEFEF"/>
<path d="M33.6239 0.333008C35.2744 0.333008 36.9227 0.443091 38.5554 0.662365L37.6937 5.92413C36.3463 5.74317 34.9861 5.65232 33.6239 5.65232V0.333008Z" fill="#0061FF"/>
</svg>
