<svg width="68" height="62" viewBox="0 0 68 62" fill="none" xmlns="http://www.w3.org/2000/svg">
<path d="M67.2399 30.789C67.2399 47.6025 52.1894 61.2325 33.6236 61.2325C15.0579 61.2325 0.00732422 47.6025 0.00732422 30.789C0.00732422 13.9755 15.0579 0.345459 33.6236 0.345459C52.1894 0.345459 67.2399 13.9755 67.2399 30.789ZM5.88102 30.789C5.88102 44.6647 18.3018 55.9132 33.6236 55.9132C48.9454 55.9132 61.3662 44.6647 61.3662 30.789C61.3662 16.9133 48.9454 5.66478 33.6236 5.66478C18.3018 5.66478 5.88102 16.9133 5.88102 30.789Z" fill="#EFEFEF"/>
<path d="M33.6234 0.345459C35.274 0.345459 36.9222 0.455543 38.5549 0.674817L37.6932 5.93659C36.3458 5.75563 34.9856 5.66478 33.6234 5.66478V0.345459Z" fill="#0061FF"/>
</svg>
