<svg width="68" height="62" viewBox="0 0 68 62" fill="none" xmlns="http://www.w3.org/2000/svg">
<path d="M67.2399 31.2152C67.2399 48.0287 52.1894 61.6588 33.6236 61.6588C15.0579 61.6588 0.00732422 48.0287 0.00732422 31.2152C0.00732422 14.4018 15.0579 0.771729 33.6236 0.771729C52.1894 0.771729 67.2399 14.4018 67.2399 31.2152ZM5.88102 31.2152C5.88102 45.091 18.3018 56.3394 33.6236 56.3394C48.9454 56.3394 61.3662 45.091 61.3662 31.2152C61.3662 17.3395 48.9454 6.09105 33.6236 6.09105C18.3018 6.09105 5.88102 17.3395 5.88102 31.2152Z" fill="#EFEFEF"/>
<path d="M33.6234 0.771729C35.274 0.771728 36.9222 0.881812 38.5549 1.10109L37.6932 6.36286C36.3458 6.1819 34.9856 6.09105 33.6234 6.09105V0.771729Z" fill="#0061FF"/>
</svg>
