<svg width="68" height="62" viewBox="0 0 68 62" fill="none" xmlns="http://www.w3.org/2000/svg">
<path d="M67.2404 30.7895C67.2404 47.6029 52.1899 61.233 33.6241 61.233C15.0583 61.233 0.0078125 47.6029 0.0078125 30.7895C0.0078125 13.976 15.0583 0.345947 33.6241 0.345947C52.1899 0.345947 67.2404 13.976 67.2404 30.7895ZM5.8815 30.7895C5.8815 44.6652 18.3023 55.9137 33.6241 55.9137C48.9459 55.9137 61.3667 44.6652 61.3667 30.7895C61.3667 16.9137 48.9459 5.66527 33.6241 5.66527C18.3023 5.66527 5.8815 16.9137 5.8815 30.7895Z" fill="#EFEFEF"/>
<path d="M33.6239 0.345947C35.2744 0.345947 36.9227 0.456031 38.5554 0.675305L37.6937 5.93708C36.3463 5.75611 34.9861 5.66527 33.6239 5.66527V0.345947Z" fill="#0061FF"/>
</svg>
