<svg width="68" height="62" viewBox="0 0 68 62" fill="none" xmlns="http://www.w3.org/2000/svg">
<path d="M67.2399 31.3356C67.2399 48.1491 52.1894 61.7791 33.6236 61.7791C15.0579 61.7791 0.00732422 48.1491 0.00732422 31.3356C0.00732422 14.5221 15.0579 0.89209 33.6236 0.89209C52.1894 0.89209 67.2399 14.5221 67.2399 31.3356ZM5.88102 31.3356C5.88102 45.2113 18.3018 56.4598 33.6236 56.4598C48.9454 56.4598 61.3662 45.2113 61.3662 31.3356C61.3662 17.4599 48.9454 6.21141 33.6236 6.21141C18.3018 6.21141 5.88102 17.4599 5.88102 31.3356Z" fill="#EFEFEF"/>
<path d="M33.6234 0.89209C35.274 0.89209 36.9222 1.00217 38.5549 1.22145L37.6932 6.48322C36.3458 6.30226 34.9856 6.21141 33.6234 6.21141V0.89209Z" fill="#0061FF"/>
</svg>
