<svg width="68" height="61" viewBox="0 0 68 61" fill="none" xmlns="http://www.w3.org/2000/svg">
<path d="M67.2404 30.4433C67.2404 47.2567 52.1899 60.8868 33.6241 60.8868C15.0583 60.8868 0.0078125 47.2567 0.0078125 30.4433C0.0078125 13.6298 15.0583 -0.000244141 33.6241 -0.000244141C52.1899 -0.000244141 67.2404 13.6298 67.2404 30.4433ZM5.8815 30.4433C5.8815 44.319 18.3023 55.5674 33.6241 55.5674C48.9459 55.5674 61.3667 44.319 61.3667 30.4433C61.3667 16.5676 48.9459 5.31907 33.6241 5.31907C18.3023 5.31907 5.8815 16.5676 5.8815 30.4433Z" fill="#EFEFEF"/>
<path d="M33.6239 -0.000244141C35.2744 -0.000244158 36.9227 0.109839 38.5554 0.329114L37.6937 5.59088C36.3463 5.40992 34.9861 5.31907 33.6239 5.31907V-0.000244141Z" fill="#0061FF"/>
</svg>
