<svg width="68" height="62" viewBox="0 0 68 62" fill="none" xmlns="http://www.w3.org/2000/svg">
<path d="M67.2404 31.016C67.2404 47.8295 52.1899 61.4595 33.6241 61.4595C15.0583 61.4595 0.0078125 47.8295 0.0078125 31.016C0.0078125 14.2025 15.0583 0.57251 33.6241 0.57251C52.1899 0.57251 67.2404 14.2025 67.2404 31.016ZM5.8815 31.016C5.8815 44.8917 18.3023 56.1402 33.6241 56.1402C48.9459 56.1402 61.3667 44.8917 61.3667 31.016C61.3667 17.1403 48.9459 5.89183 33.6241 5.89183C18.3023 5.89183 5.8815 17.1403 5.8815 31.016Z" fill="#EFEFEF"/>
<path d="M33.6239 0.57251C35.2744 0.57251 36.9227 0.682593 38.5554 0.901868L37.6937 6.16364C36.3463 5.98268 34.9861 5.89183 33.6239 5.89183V0.57251Z" fill="#0061FF"/>
</svg>
