<svg width="20" height="22" viewBox="0 0 20 22" fill="none" xmlns="http://www.w3.org/2000/svg">
<path d="M17.779 11.6435L10.584 18.5751C9.64081 19.3814 8.41294 19.8106 7.15159 19.7749C5.89025 19.7392 4.69075 19.2413 3.79846 18.383C2.90616 17.5248 2.38851 16.371 2.35138 15.1578C2.31425 13.9446 2.76045 12.7635 3.59871 11.8563L12.9125 2.89779C13.4686 2.38973 14.2062 2.10646 14.9732 2.10646C15.7401 2.10646 16.4778 2.38973 17.0338 2.89779C17.5756 3.42588 17.8794 4.13795 17.8794 4.87986C17.8794 5.62177 17.5756 6.33383 17.0338 6.86192L9.0007 14.5774C8.9212 14.6598 8.82562 14.7263 8.7194 14.7731C8.61319 14.8199 8.49843 14.8461 8.38167 14.8503C8.26491 14.8544 8.14845 14.8364 8.03892 14.7973C7.9294 14.7582 7.82896 14.6987 7.74334 14.6222C7.65773 14.5457 7.58861 14.4538 7.53993 14.3516C7.49125 14.2495 7.46397 14.1391 7.45965 14.0268C7.45533 13.9145 7.47404 13.8025 7.51473 13.6971C7.55541 13.5918 7.61727 13.4952 7.69677 13.4128L13.6692 7.67939C13.8885 7.46852 14.0116 7.18253 14.0116 6.88432C14.0116 6.58611 13.8885 6.30012 13.6692 6.08925C13.45 5.87839 13.1527 5.75993 12.8426 5.75993C12.5326 5.75993 12.2353 5.87839 12.016 6.08925L6.04358 11.8451C5.74473 12.1303 5.50753 12.4696 5.34566 12.8434C5.18379 13.2172 5.10046 13.6182 5.10046 14.0231C5.10046 14.4281 5.18379 14.829 5.34566 15.2028C5.50753 15.5766 5.74473 15.9159 6.04358 16.2011C6.65406 16.7605 7.46487 17.0725 8.30799 17.0725C9.15111 17.0725 9.96192 16.7605 10.5724 16.2011L18.5939 8.47445C19.5193 7.5192 20.0231 6.25574 19.9992 4.95025C19.9752 3.64477 19.4254 2.39919 18.4655 1.47593C17.5057 0.552674 16.2107 0.0238188 14.8534 0.000785079C13.4962 -0.0222486 12.1826 0.462338 11.1894 1.35245L1.87566 10.3109C0.61969 11.6489 -0.0511023 13.4015 0.00304007 15.2034C0.0571824 17.0053 0.832083 18.7176 2.16629 19.9836C3.5005 21.2496 5.29111 21.9716 7.16505 21.9992C9.039 22.0268 10.8517 21.3578 12.2256 20.1317L19.4321 13.2113C19.5407 13.1068 19.6268 12.9829 19.6856 12.8465C19.7443 12.7101 19.7745 12.5638 19.7745 12.4162C19.7745 12.2685 19.7443 12.1223 19.6856 11.9859C19.6268 11.8495 19.5407 11.7255 19.4321 11.6211C19.3236 11.5167 19.1947 11.4339 19.0529 11.3774C18.9111 11.3209 18.7591 11.2918 18.6056 11.2918C18.452 11.2918 18.3 11.3209 18.1582 11.3774C18.0164 11.4339 17.8875 11.5167 17.779 11.6211V11.6435Z" fill="#1849D6"/>
</svg>
