<svg width="68" height="62" viewBox="0 0 68 62" fill="none" xmlns="http://www.w3.org/2000/svg">
<path d="M67.2399 30.7753C67.2399 47.5888 52.1894 61.2188 33.6236 61.2188C15.0579 61.2188 0.00732422 47.5888 0.00732422 30.7753C0.00732422 13.9618 15.0579 0.331787 33.6236 0.331787C52.1894 0.331787 67.2399 13.9618 67.2399 30.7753ZM5.88102 30.7753C5.88102 44.651 18.3018 55.8995 33.6236 55.8995C48.9454 55.8995 61.3662 44.651 61.3662 30.7753C61.3662 16.8996 48.9454 5.65111 33.6236 5.65111C18.3018 5.65111 5.88102 16.8996 5.88102 30.7753Z" fill="#EFEFEF"/>
<path d="M33.6234 0.331787C35.274 0.331787 36.9222 0.441871 38.5549 0.661145L37.6932 5.92292C36.3458 5.74195 34.9856 5.65111 33.6234 5.65111V0.331787Z" fill="#0061FF"/>
</svg>
