 <svg width="266" height="293" viewBox="0 0 266 293" fill="none" xmlns="http://www.w3.org/2000/svg">
                                        <path d="M184.342 257.144C211.58 247.381 234.499 228.319 249.061 203.316C263.623 178.313 268.895 148.972 263.947 120.464C258.999 91.9553 244.15 66.1073 222.014 47.4731C199.878 28.839 171.877 18.6143 142.942 18.6001L142.882 141.475L184.342 257.144Z" fill="#35BD7A"/>
                                        <path d="M52.5602 224.766C69.0158 242.702 90.4281 255.347 114.081 261.097C137.734 266.846 162.562 265.441 185.415 257.059L143.104 141.698L52.5602 224.766Z" fill="#F8612B"/>
                                        <path d="M20.214 133.402C19.1127 150.243 21.4926 167.131 27.2055 183.012C32.9183 198.893 41.8416 213.427 53.4189 225.708L142.827 141.42L20.214 133.402Z" fill="#2C8FF6"/>
                                        <path d="M47.8331 62.9395C31.3558 82.8948 21.5996 107.543 19.9557 133.37L142.583 141.175L47.8331 62.9395Z" fill="#FFB830"/>
                                        <path d="M82.166 34.6727C69.0343 42.1009 57.3829 51.8839 47.7947 63.5323L142.664 141.622L82.166 34.6727Z" fill="#8735DC"/>
                                        <path d="M142.639 18.8386C121.282 18.8728 100.302 24.4735 81.7684 35.0882L142.837 141.713L142.639 18.8386Z" fill="#ED3065"/>
                                        </svg>
                                        