<svg width="31" height="31" viewBox="0 0 31 31" fill="none" xmlns="http://www.w3.org/2000/svg">
<path d="M14.4333 22.9192H16.9278C17.6138 22.9192 18.1751 22.3579 18.1751 21.6719C18.1751 20.9859 17.6138 20.4246 16.9278 20.4246H14.4333C13.7473 20.4246 13.186 20.9859 13.186 21.6719C13.186 22.3579 13.7473 22.9192 14.4333 22.9192ZM4.45508 9.19918C4.45508 9.88518 5.01635 10.4464 5.70235 10.4464H25.6587C26.3447 10.4464 26.906 9.88518 26.906 9.19918C26.906 8.51318 26.3447 7.9519 25.6587 7.9519H5.70235C5.01635 7.9519 4.45508 8.51318 4.45508 9.19918ZM9.44417 16.6828H21.9169C22.6029 16.6828 23.1642 16.1215 23.1642 15.4355C23.1642 14.7495 22.6029 14.1883 21.9169 14.1883H9.44417C8.75817 14.1883 8.1969 14.7495 8.1969 15.4355C8.1969 16.1215 8.75817 16.6828 9.44417 16.6828Z" fill="#0B0B0B"/>
</svg>
