<svg width="20" height="23" viewBox="0 0 20 23" fill="none" xmlns="http://www.w3.org/2000/svg">
<path d="M9.11961 23.0007C7.58963 23.0007 6.34375 21.5184 6.34375 19.6961C6.34375 19.3312 6.59247 19.0352 6.89892 19.0352C7.20538 19.0352 7.45409 19.3312 7.45409 19.6961C7.45409 20.7898 8.20173 21.6788 9.11961 21.6788C10.0375 21.6788 10.7851 20.7898 10.7851 19.6961C10.7851 19.3312 11.0338 19.0352 11.3403 19.0352C11.6468 19.0352 11.8955 19.3312 11.8955 19.6961C11.8955 21.5184 10.6497 23.0007 9.11961 23.0007V23.0007Z" fill="#636567"/>
<path d="M9.11961 23.0007C7.58963 23.0007 6.34375 21.5184 6.34375 19.6961C6.34375 19.3312 6.59247 19.0352 6.89892 19.0352C7.20538 19.0352 7.45409 19.3312 7.45409 19.6961C7.45409 20.7898 8.20173 21.6788 9.11961 21.6788C10.0375 21.6788 10.7851 20.7898 10.7851 19.6961C10.7851 19.3312 11.0338 19.0352 11.3403 19.0352C11.6468 19.0352 11.8955 19.3312 11.8955 19.6961C11.8955 21.5184 10.6497 23.0007 9.11961 23.0007V23.0007Z" fill="#636567"/>
<path d="M15.9215 19.827H1.52667C0.684819 19.827 0 19.1007 0 18.2079C0 17.734 0.194567 17.2853 0.533862 16.9771C0.555747 16.9568 0.579229 16.9383 0.60367 16.9216C1.88433 15.7363 2.61723 14.031 2.61723 12.2304V9.64883C2.61723 6.07735 5.35747 3.17188 8.72406 3.17188C8.86367 3.17188 9.01463 3.17459 9.15425 3.19966C9.51095 3.26252 9.75185 3.62068 9.69242 3.99816C9.63316 4.37564 9.28939 4.63113 8.93955 4.56811C8.86974 4.55608 8.79307 4.55981 8.72406 4.55981C6.07903 4.55981 3.92585 6.84247 3.92585 9.64883V12.2304C3.92585 14.4659 3.0019 16.5812 1.39328 18.0328C1.38018 18.044 1.36884 18.0542 1.35478 18.0643C1.3313 18.0959 1.30862 18.144 1.30862 18.2079C1.30862 18.3336 1.40814 18.4391 1.52667 18.4391H15.9215C16.0401 18.4391 16.1397 18.3336 16.1397 18.2079C16.1397 18.143 16.117 18.0959 16.0925 18.0643C16.0794 18.0542 16.0681 18.044 16.055 18.0328C14.4454 16.5802 13.5224 14.4659 13.5224 12.2304V11.2219C13.5224 10.8389 13.8156 10.528 14.1767 10.528C14.5379 10.528 14.831 10.8389 14.831 11.2219V12.2304C14.831 14.032 15.5647 15.7381 16.8472 16.9245C16.8706 16.9411 16.8933 16.9587 16.9143 16.9782C17.2537 17.2853 17.4483 17.734 17.4483 18.2079C17.4483 19.1007 16.7635 19.827 15.9215 19.827V19.827Z" fill="#636567"/>
<path d="M15.9215 19.827H1.52667C0.684819 19.827 0 19.1007 0 18.2079C0 17.734 0.194567 17.2853 0.533862 16.9771C0.555747 16.9568 0.579229 16.9383 0.60367 16.9216C1.88433 15.7363 2.61723 14.031 2.61723 12.2304V9.64883C2.61723 6.07735 5.35747 3.17188 8.72406 3.17188C8.86367 3.17188 9.01463 3.17459 9.15425 3.19966C9.51095 3.26252 9.75185 3.62068 9.69242 3.99816C9.63316 4.37564 9.28939 4.63113 8.93955 4.56811C8.86974 4.55608 8.79307 4.55981 8.72406 4.55981C6.07903 4.55981 3.92585 6.84247 3.92585 9.64883V12.2304C3.92585 14.4659 3.0019 16.5812 1.39328 18.0328C1.38018 18.044 1.36884 18.0542 1.35478 18.0643C1.3313 18.0959 1.30862 18.144 1.30862 18.2079C1.30862 18.3336 1.40814 18.4391 1.52667 18.4391H15.9215C16.0401 18.4391 16.1397 18.3336 16.1397 18.2079C16.1397 18.143 16.117 18.0959 16.0925 18.0643C16.0794 18.0542 16.0681 18.044 16.055 18.0328C14.4454 16.5802 13.5224 14.4659 13.5224 12.2304V11.2219C13.5224 10.8389 13.8156 10.528 14.1767 10.528C14.5379 10.528 14.831 10.8389 14.831 11.2219V12.2304C14.831 14.032 15.5647 15.7381 16.8472 16.9245C16.8706 16.9411 16.8933 16.9587 16.9143 16.9782C17.2537 17.2853 17.4483 17.734 17.4483 18.2079C17.4483 19.1007 16.7635 19.827 15.9215 19.827V19.827Z" fill="#636567"/>
<path d="M15.0672 10.3103C12.8805 10.3103 11.1016 7.99787 11.1016 5.15527C11.1016 2.31267 12.8805 0 15.0672 0C17.2538 0 19.0326 2.31267 19.0326 5.15527C19.0326 7.99787 17.2538 10.3103 15.0672 10.3103V10.3103ZM15.0672 1.54656C13.5364 1.54656 12.2912 3.16524 12.2912 5.15527C12.2912 7.1451 13.5364 8.76378 15.0672 8.76378C16.5978 8.76378 17.8429 7.1451 17.8429 5.15527C17.8429 3.16524 16.5978 1.54656 15.0672 1.54656V1.54656Z" fill="#FE5C73"/>
</svg>
