<svg width="21" height="20" viewBox="0 0 21 20" fill="none" xmlns="http://www.w3.org/2000/svg">
<g clip-path="url(#clip0_985_17935)">
<g clip-path="url(#clip1_985_17935)">
<path d="M4.66699 4.58317C4.66699 4.47266 4.71089 4.36668 4.78903 4.28854C4.86717 4.2104 4.97315 4.1665 5.08366 4.1665H8.41699C8.5275 4.1665 8.63348 4.2104 8.71162 4.28854C8.78976 4.36668 8.83366 4.47266 8.83366 4.58317V7.9165C8.83366 8.02701 8.78976 8.13299 8.71162 8.21113C8.63348 8.28927 8.5275 8.33317 8.41699 8.33317H5.08366C4.97315 8.33317 4.86717 8.28927 4.78903 8.21113C4.71089 8.13299 4.66699 8.02701 4.66699 7.9165V4.58317Z" stroke="#1640C1" stroke-width="1.5" stroke-linecap="round" stroke-linejoin="round"/>
<path d="M4.66699 12.0832C4.66699 11.9727 4.71089 11.8667 4.78903 11.7885C4.86717 11.7104 4.97315 11.6665 5.08366 11.6665H8.41699C8.5275 11.6665 8.63348 11.7104 8.71162 11.7885C8.78976 11.8667 8.83366 11.9727 8.83366 12.0832V15.4165C8.83366 15.527 8.78976 15.633 8.71162 15.7111C8.63348 15.7893 8.5275 15.8332 8.41699 15.8332H5.08366C4.97315 15.8332 4.86717 15.7893 4.78903 15.7111C4.71089 15.633 4.66699 15.527 4.66699 15.4165V12.0832Z" stroke="#1640C1" stroke-width="1.5" stroke-linecap="round" stroke-linejoin="round"/>
<path d="M12.167 12.4998L14.667 14.9998L17.167 12.4998" stroke="#1640C1" stroke-width="1.5" stroke-linecap="round" stroke-linejoin="round"/>
<path d="M14.667 14.9998V4.99976" stroke="#1640C1" stroke-width="1.5" stroke-linecap="round" stroke-linejoin="round"/>
</g>
</g>
<defs>
<clipPath id="clip0_985_17935">
<rect width="20" height="20" fill="white" transform="translate(0.5)"/>
</clipPath>
<clipPath id="clip1_985_17935">
<rect width="20" height="20" fill="white" transform="translate(0.5 -0.000244141)"/>
</clipPath>
</defs>
</svg>
