<svg width="523" height="293" viewBox="0 0 523 293" fill="none" xmlns="http://www.w3.org/2000/svg">
<g clip-path="url(#clip0_3124_655)">
<path d="M488.769 100.933C488.834 105.539 481.589 105.539 481.663 100.933C481.598 96.3269 488.843 96.3269 488.769 100.933Z" fill="#4811BF"/>
<path d="M445.156 282.899H45.8254C32.3392 282.899 21.4121 271.985 21.4121 258.516V28.4419C21.4121 14.9725 32.3392 4.05908 45.8254 4.05908H445.156C458.642 4.05908 469.569 14.9725 469.569 28.4419V258.507C469.569 271.976 458.642 282.89 445.156 282.89V282.899Z" fill="#BDC1CA"/>
<path d="M456.192 282.899H56.8527C43.3665 282.899 32.4395 271.985 32.4395 258.516V28.4419C32.4395 14.9725 43.3665 4.05908 56.8527 4.05908H456.192C469.678 4.05908 480.605 14.9725 480.605 28.4419V258.507C480.605 271.976 469.678 282.89 456.192 282.89V282.899Z" fill="white"/>
<path d="M201.21 67.9773H92.2248C88.5058 67.9773 85.4863 64.9708 85.4863 61.2472C85.4863 57.5328 88.4966 54.5171 92.2248 54.5171H201.21C204.929 54.5171 207.949 57.5236 207.949 61.2472C207.949 64.9616 204.929 67.9773 201.21 67.9773Z" fill="#323743"/>
<path d="M244.123 67.9773H223.309C219.59 67.9773 216.57 64.9708 216.57 61.2472C216.57 57.5328 219.581 54.5171 223.309 54.5171H244.123C247.842 54.5171 250.861 57.5236 250.861 61.2472C250.861 64.9616 247.842 67.9773 244.123 67.9773Z" fill="#F3F4F6"/>
<path d="M201.211 74.0679H85.4961V76.5135H201.211V74.0679Z" fill="#BDC1CA"/>
<path opacity="0.54" d="M428.495 84.9468H84.1035V254.468H428.495V84.9468Z" stroke="#B9E5FF" stroke-width="0.8918" stroke-miterlimit="10"/>
<path opacity="0.54" d="M84.2461 127.182H428.941" stroke="#B9E5FF" stroke-width="0.8918" stroke-miterlimit="10"/>
<path opacity="0.54" d="M132.844 84.3037V254.303" stroke="#B9E5FF" stroke-width="0.91" stroke-miterlimit="10"/>
<path opacity="0.54" d="M182.463 84.3037V254.303" stroke="#B9E5FF" stroke-width="0.91" stroke-miterlimit="10"/>
<path opacity="0.54" d="M232.082 84.3037V254.303" stroke="#B9E5FF" stroke-width="0.91" stroke-miterlimit="10"/>
<path opacity="0.54" d="M281.711 84.3037V254.303" stroke="#B9E5FF" stroke-width="0.91" stroke-miterlimit="10"/>
<path opacity="0.54" d="M331.33 84.3037V254.303" stroke="#B9E5FF" stroke-width="0.91" stroke-miterlimit="10"/>
<path opacity="0.54" d="M380.949 84.3037V254.303" stroke="#B9E5FF" stroke-width="0.91" stroke-miterlimit="10"/>
<path opacity="0.54" d="M84.2461 169.304H428.941" stroke="#B9E5FF" stroke-width="0.8918" stroke-miterlimit="10"/>
<path opacity="0.54" d="M84.2461 211.425H428.941" stroke="#B9E5FF" stroke-width="0.8918" stroke-miterlimit="10"/>
<path d="M304.948 92.7476C323.249 92.8303 323.249 120.615 304.948 120.698C286.647 120.615 286.647 92.8303 304.948 92.7476Z" fill="#62CD14"/>
<path d="M310.466 102.181H306.691V105.95H310.466V102.181Z" fill="white"/>
<path d="M304.468 102.181H300.693V105.95H304.468V102.181Z" fill="white"/>
<path d="M304.468 107.758H300.693V111.527H304.468V107.758Z" fill="white"/>
<path d="M166.55 244.397H145.267C141.336 244.397 138.151 241.216 138.151 237.29C138.316 231.553 136.273 219.821 145.267 219.987H166.55C170.481 219.987 173.666 223.168 173.666 227.094C173.5 232.831 175.544 244.563 166.55 244.397Z" fill="#323743"/>
<path d="M153.128 230.854H146.914V231.663H153.128V230.854Z" fill="white"/>
<path d="M161.074 228.701H146.916V229.51H161.074V228.701Z" fill="white"/>
<path d="M170.295 105.207H142.743C141.555 105.207 140.598 104.251 140.598 103.065C140.598 101.879 141.555 100.923 142.743 100.923H170.295C171.482 100.923 172.44 101.879 172.44 103.065C172.44 104.251 171.482 105.207 170.295 105.207Z" fill="#15ABFF"/>
<path d="M150.082 114.361C148.158 113.883 140.425 115.869 140.591 112.219C140.407 108.569 148.186 110.555 150.082 110.077C151.27 110.077 152.227 111.033 152.227 112.219C152.227 113.405 151.27 114.361 150.082 114.361Z" fill="#BDC1CA"/>
<path d="M320.691 189.46H293.139C291.952 189.46 290.994 188.504 290.994 187.318C290.994 186.132 291.952 185.176 293.139 185.176H320.691C321.879 185.176 322.836 186.132 322.836 187.318C322.836 188.504 321.879 189.46 320.691 189.46Z" fill="#323743"/>
<path d="M300.477 198.604C298.553 198.126 290.82 200.112 290.986 196.462C290.802 192.811 298.58 194.797 300.477 194.319C301.664 194.319 302.622 195.275 302.622 196.462C302.622 197.648 301.664 198.604 300.477 198.604Z" fill="#BDC1CA"/>
<path d="M259.483 224.543C260.054 225.509 260.541 230.17 262.217 229.986C263.607 230.124 270.41 229.113 267.759 232.395C267.013 233.232 262.723 235.135 263.423 236.68C263.717 238.04 266.792 244.191 262.843 242.693L258.995 239.898C257.034 238.289 251.824 246.444 251.529 241.203C251.64 240.091 253.987 236.027 252.514 235.19C251.474 234.262 245.371 231.09 249.449 229.986H254.208C256.758 230.078 256.132 220.535 259.483 224.543Z" fill="#62CD14"/>
<path d="M204.578 133.313C223.293 128.955 230.05 157.346 211.372 161.87C192.657 166.228 185.9 137.836 204.578 133.313Z" fill="#6D31ED"/>
<path d="M202.475 146.343L207.372 151.235L216.246 142.372" fill="#6D31ED"/>
<path d="M202.475 146.343L207.372 151.235L216.246 142.372" stroke="white" stroke-width="0.91" stroke-miterlimit="10"/>
<path d="M103.838 184.558L116.689 197.393" stroke="#4811BF" stroke-width="4.55" stroke-miterlimit="10" stroke-linecap="round"/>
<path d="M116.689 184.558L103.838 197.393" stroke="#4811BF" stroke-width="4.55" stroke-miterlimit="10" stroke-linecap="round"/>
<path d="M403.627 102.558L415.649 114.565" stroke="#62CD14" stroke-width="4.55" stroke-miterlimit="10" stroke-linecap="round"/>
<path d="M415.65 102.14L402.799 114.984" stroke="#62CD14" stroke-width="4.55" stroke-miterlimit="10" stroke-linecap="round"/>
<path d="M66.464 68.1734C71.7388 58.8874 59.3757 51.293 53.4657 51.5229C46.9666 49.5829 31.004 58.6943 48.1725 76.1907" fill="#323743"/>
<path d="M48.771 66.8827C48.6974 67.1126 48.4488 67.2229 48.2279 67.1401C43.533 64.8048 42.235 72.4728 47.7031 72.4176C48.2095 73.6588 47.3717 82.5311 46.6721 83.2391C42.3547 87.6247 41.3145 87.5603 41.3145 87.5603C41.3145 87.5603 56.8443 111.088 57.2494 91.0357C57.2494 91.0357 58.9432 79.4235 59.0445 79.4419C60.4805 79.6993 65.8842 79.7269 66.6391 69.2548C67.5781 56.2083 52.8215 51.5469 48.7618 66.8827H48.771Z" fill="#FFE6CC"/>
<path d="M59.0245 79.463L54.9004 78.5527C55.4895 80.3732 57.7541 81.0351 59.0245 79.463Z" fill="#008AD9"/>
<path d="M63.9673 57.3666C64.2803 60.2352 48.7044 69.9166 46.6699 65.9816C46.6699 65.9816 57.1919 44.6512 63.9673 57.3666Z" fill="#323743"/>
<path d="M43.569 42.0385C47.3801 32.449 62.3668 38.6551 58.2795 48.125C54.4684 57.7145 39.4817 51.5085 43.569 42.0385Z" fill="#323743"/>
<path d="M48.0973 69.7707C46.873 65.7529 45.1699 68.6766 45.1699 68.6766L48.0973 69.7707Z" fill="#008AD9"/>
<path d="M57.6658 69.6399C60.5471 70.6053 58.973 75.1012 56.1192 74.0623C53.2379 73.1061 54.812 68.6009 57.6658 69.6399Z" fill="#B9E5FF"/>
<path d="M65.3487 75.1449C63.3695 74.0049 64.1796 71.0903 66.4441 70.98C66.4441 70.98 66.3337 73.6647 65.3487 75.1449Z" fill="#B9E5FF"/>
<path d="M55.3066 271.927L57.1846 288.072C62.6987 293.763 63.6561 289.58 69.2623 286.261C68.0012 285.562 65.0001 283.539 65.0001 283.539L65.6998 271.614L55.3066 271.936V271.927Z" fill="#FFE6CC"/>
<path d="M65.1445 283.252L76.1912 290.442C78.4926 292.539 55.7087 290.81 55.7364 290.985C56.5649 282.857 55.1656 284.576 61.2505 287.5C62.3 287.142 64.8315 283.023 65.1445 283.252Z" fill="white"/>
<path d="M12.2037 272.162L8.32812 286.597C13.9159 293.612 14.2749 290.293 20.6176 286.248C19.3564 285.549 16.3554 283.526 16.3554 283.526L20.6821 271.951L12.1945 272.162H12.2037Z" fill="#FFE6CC"/>
<path d="M16.4988 283.248L27.5455 290.438C29.8285 292.589 5.47965 290.585 5.49806 290.778C6.43703 288.479 7.52329 283.625 8.67399 281.749C8.80287 281.547 10.2482 284.976 12.1997 285.537C13.2492 285.179 16.1858 283.018 16.4988 283.248Z" fill="white"/>
<path d="M36.5969 127.025C22.8437 152.419 7.56236 243.248 1.7168 279.794C5.17811 280.631 28.2013 282.498 30.3923 282.369C55.7813 139.207 53.9862 132.587 45.0844 282.065C50.7459 282.378 66.5611 282.332 68.66 282.065C70.943 257.462 82.404 157.485 64.1124 127.3C55.7537 126.151 45.0752 126.767 36.5969 127.015V127.025Z" fill="#4811BF"/>
<path d="M80.6699 112.453C80.7804 112.913 91.4957 101.64 91.4957 101.64C91.4957 101.64 101.042 89.0353 101.705 89.7617C102.671 90.8006 98.9707 96.4274 98.9707 96.4274C98.9707 96.4274 99.21 97.071 99.9373 97.3928C101.198 97.9261 101.751 100.445 102.671 101.245C98.7405 107.534 95.8039 107.81 88.0528 118.034" fill="#FFE6CC"/>
<path d="M91.8184 101.583C91.8184 101.583 93.7515 96.1214 94.5524 96.2869C97.0471 96.5903 102.276 101.307 95.6755 99.5784C96.4672 102.907 93.9817 104.396 91.8184 101.583Z" fill="#FFE6CC"/>
<path d="M96.4868 99.918C96.4868 99.918 96.3855 100.736 97.5086 100.975C97.5086 100.975 97.7572 102.704 99.2116 102.382C99.2116 102.382 98.9539 103.219 99.8376 103.375C99.8376 103.375 95.9252 107.549 96.4868 99.9272V99.918Z" fill="#008AD9"/>
<path d="M95.8446 96.6709C99.4624 97.4524 101.966 100.339 96.5074 100.211C96.489 100.532 96.6179 101.378 96.6086 101.81H96.5718C96.5626 101.387 96.1484 100.422 96.3509 100.036C101.801 99.6314 98.7075 98.0316 95.8262 96.7077L95.8446 96.6801V96.6709Z" fill="#008AD9"/>
<path d="M99.0633 96.2952C98.9989 96.9571 98.4742 97.4536 97.8206 97.5456L97.793 97.518C98.1888 97.0859 98.6031 96.6721 99.0357 96.2676L99.0633 96.2952Z" fill="#008AD9"/>
<path d="M100.697 98.3098C100.071 99.4867 97.9813 102.015 96.6465 100.682L96.6741 100.664C98.1286 101.445 99.6383 99.1465 100.669 98.2822L100.697 98.3098Z" fill="#008AD9"/>
<path d="M97.5524 100.924C98.4362 103.508 100.314 100.557 101.52 99.7935L101.548 99.8118C100.664 101.108 98.0127 103.968 97.5156 100.924H97.5524Z" fill="#008AD9"/>
<path d="M99.3442 102.216C99.7033 103.292 100.854 102.796 101.692 102.602L101.719 102.63C101.075 103.347 99.1969 103.632 99.3074 102.226H99.3442V102.216Z" fill="#008AD9"/>
<path d="M58.6816 87.1469C58.6816 87.1469 66.175 86.5769 68.412 91.128C70.6489 95.6791 75.8409 113.819 75.8409 113.819L90.9841 102.216L95.4765 109.176C95.4765 109.176 76.3012 136.124 70.6766 134.377C65.0519 132.63 58.6264 93.3529 58.6908 87.1469H58.6816Z" fill="#FFE6CC"/>
<path d="M71.4351 99.3951C69.0325 89.8607 65.7829 86.5876 58.6762 87.1577C58.6486 90.1274 60.0938 100.655 62.2387 111.026C65.3226 107.164 68.3973 103.293 71.4351 99.3951Z" fill="#B9E5FF" stroke="#B9E5FF" stroke-width="0.91" stroke-miterlimit="10" stroke-linecap="round"/>
<path d="M65.4506 122.63L64.125 127.43L36.8027 127.273L36.8856 122.713L65.4506 122.63Z" fill="#FFE6CC"/>
<path d="M57.927 85.9666C68.2556 102.286 70.0047 111.94 70.1888 130.282C70.1888 130.282 34.112 128.186 33.4584 128.453C31.5713 111.296 30.4206 92.0348 35.0234 89.3133C35.0234 89.3133 41.9644 86.2608 45.794 83.4658C45.794 83.4658 57.7428 99.3257 57.927 85.9666Z" fill="#B9E5FF"/>
<path d="M38.2406 90.5815C31.6954 94.958 31.7046 109.402 33.4629 128.434C33.9324 128.241 53.0156 129.289 63.4916 129.886C53.9362 117.502 45.3197 104.474 38.2498 90.5907L38.2406 90.5815Z" fill="#B9E5FF"/>
<path d="M25.754 184.294L10.3622 153.485C8.8801 150.515 10.086 146.911 13.0594 145.431L43.8798 130.067C46.8532 128.587 50.4618 129.792 51.9439 132.761L67.3357 163.571C68.8178 166.541 67.6119 170.145 64.6385 171.625L33.8181 186.988C30.8447 188.469 27.2361 187.264 25.754 184.294Z" fill="white"/>
<path d="M44.6512 168.591C59.9601 163.699 52.6141 140.429 37.2683 145.182C21.9594 150.074 29.3055 173.353 44.6512 168.591Z" fill="#4811BF"/>
<path d="M41.2207 156.807L52.8106 162.397C54.3387 159.574 54.7622 156.172 53.7219 152.872L41.2207 156.807Z" fill="#323743"/>
<path d="M52.6797 153.205C50.6453 146.741 43.7411 143.146 37.2695 145.187L41.2187 156.809L52.6797 153.205Z" fill="#4811BF"/>
<path d="M20.3482 154.462L18.1699 155.563L28.6522 176.244L30.8305 175.143L20.3482 154.462Z" fill="#FFE6CC"/>
<path d="M28.5034 137.882C26.5979 139.592 34.3582 146.635 33.1891 147.895C31.4216 147.509 28.3469 143.04 27.1594 142.47C26.2757 142.636 34.4594 152.823 30.0684 149.393C31.1362 152.483 28.4114 149.605 26.6807 147.959C27.2699 149.724 26.4874 149.485 26.4874 149.485C25.4195 148.823 22.621 143.445 21.7005 142.102C20.8444 135.244 -1.5621 108.682 0.104112 103.496C31.173 82.2118 67.9034 90.9278 30.4642 107.33L16.4625 113.325L25.2907 133.083C26.5794 133.727 29.8935 135.418 30.8324 136.181" fill="#FFE6CC"/>
<path d="M25.502 92.249C35.9779 89.316 44.622 84.2041 45.9476 94.6486C46.4907 98.9055 40.1113 102.96 34.9837 105.406C31.8538 101.002 28.6963 96.6162 25.502 92.249Z" fill="#B9E5FF" stroke="#B9E5FF" stroke-width="0.91" stroke-miterlimit="10" stroke-linecap="round"/>
<path d="M414.17 35.121C414.17 35.121 421.267 25.4304 419.841 25.0442C418.423 24.6672 415.385 29.1724 414.805 26.3957C413.581 20.5115 419.96 25.7981 419.841 24.8052C419.104 18.9209 412.356 22.7181 412.356 22.7181C412.356 22.7181 412.66 11.9977 411.657 11.8598C410.653 11.7127 409.3 20.1713 409.3 20.1713C408.573 8.92688 406.704 9.90146 407.303 20.2449C407.303 20.2449 406.023 14.7652 405.526 16.1627C405.038 17.551 406.686 29.9355 406.686 29.9355L414.179 35.1302L414.17 35.121Z" fill="#FFE6CC"/>
<path d="M418.102 272.817L413.821 288.797L389.15 287.914L389.215 285.965L403.539 278.325L404.818 272.643L418.102 272.817Z" fill="#FFE6CC"/>
<path d="M486.23 275.418L489.37 291.655L514.031 292.537L514.105 290.588L500.37 281.946L498.851 276.163L486.23 275.418Z" fill="#FFE6CC"/>
<path d="M500.543 281.954C493.676 289.373 494.008 288.224 487.646 281.319L489.534 291.663L514.205 292.536L514.278 290.587L500.543 281.954Z" fill="#323743" stroke="#323743" stroke-width="0.91" stroke-miterlimit="10" stroke-linecap="round"/>
<path d="M403.273 278.312C409.597 286.201 409.349 285.033 416.179 278.598L413.556 288.785L388.885 287.911L388.958 285.962L403.273 278.322V278.312Z" fill="#323743" stroke="#323743" stroke-width="0.91" stroke-miterlimit="10" stroke-linecap="round"/>
<path d="M471.555 142.198L498.74 276.487L483.808 278.133C437.117 177.421 450.18 125.244 419.967 273.214L402.78 273.012C402.78 273.012 401.804 183.746 427.497 124.187L471.555 142.198Z" fill="#323743"/>
<path d="M471.499 75.7271L448.66 71.1852C432.697 68.0132 409.978 83.018 406.287 66.7996C403.387 55.3161 408.662 44.7428 415.989 36.5784L405.789 28.3589C405.789 28.3589 340.678 100.073 427.395 91.9915L416.035 146.66C416.035 146.66 439.077 150.76 473.966 152.544L484.166 104.376" fill="#4811BF"/>
<path opacity="0.55" d="M435.249 121.73C429.293 127.201 423.309 132.662 417.427 138.206L415.678 146.61C415.678 146.61 438.719 150.71 473.609 152.494L483.808 104.326L474.225 82.6646C461.301 95.7478 448.818 109.254 435.249 121.74V121.73Z" fill="#6D31ED"/>
<path d="M472.52 60.4048L471.397 74.0856C471.397 74.0856 468.709 83.7487 458.205 80.3285C451.614 78.177 452.516 71.3826 452.516 71.3826L456.972 62.6206L470.707 57.8672C470.881 57.9407 472.548 59.8899 472.52 60.4048Z" fill="#FFE6CC"/>
<path d="M470.713 57.8794L457.77 63.2855C454.124 70.7696 465.548 73.9416 468.282 62.9086" fill="#323743"/>
<path d="M474.72 56.1617C474.72 56.1617 473.182 55.748 471.617 56.8145L472.52 46.9676C472.52 46.9676 469.666 43.3543 467.42 44.0806C464.06 44.9633 460.865 40.9914 460.856 38.84C460.856 38.84 457.063 29.462 459.963 28.8735C473.33 29.3149 488.344 38.3803 475.106 56.5203" fill="#323743"/>
<path d="M472.139 55.5841C472.608 56.9908 475.692 53.6441 475.158 58.1217C474.523 62.2682 470.592 60.1444 470.076 60.5489C467.665 63.1876 458.349 67.4078 455.265 60.9719C453.829 58.2136 452.383 59.2526 460.816 38.1152C462.012 43.3743 472.194 41.986 473.354 47.5024C473.142 49.7734 472.083 53.6717 472.148 55.5841H472.139Z" fill="#FFE6CC"/>
<path d="M474.648 57.6099L471.877 58.4557C471.877 58.4557 474.068 54.8333 474.648 57.6099Z" fill="#B9E5FF"/>
<path d="M448.688 71.2084L454.662 66.9331L459.753 80.5864L454.238 86.4982L448.688 71.2084Z" fill="#FAE9CF"/>
<path d="M471.812 69.9844L459.771 80.5852L461.198 87.3061L474.666 77.7258L471.812 69.9844Z" fill="#FAE9CF"/>
<path d="M473.351 132.861C473.351 132.861 462.249 135.362 462.958 136.456C463.262 137.844 469.365 136.851 468.141 139.545C466.594 142.276 454.139 158.237 466.263 147.213C472.053 141.632 462.811 153.327 463.694 153.879C464.578 154.43 469.614 147.838 470.589 148.004C471.565 148.169 466.254 154.734 467.34 156.021C468.435 157.308 472.762 149.833 473.388 149.723C474.014 149.612 471.022 154.853 471.574 155.276C473.526 156.784 480.265 142.358 480.587 141.135C480.909 139.913 473.342 132.852 473.342 132.852L473.351 132.861Z" fill="#FFE6CC"/>
<path d="M471.43 130.716L484.337 145.059C484.337 145.059 532.813 110.617 521.177 98.4904C486.647 65.272 442.838 73.4272 493.432 109.248L471.43 130.707V130.716Z" fill="#4811BF"/>
<path d="M421.818 27.5043H388.881C385.3 27.5043 382.391 24.599 382.391 21.0225C383.164 15.3681 379.178 -0.151647 388.881 -0.0137352H421.818C425.399 -0.0137352 428.308 2.89161 428.308 6.46813C427.535 12.1225 431.521 27.6422 421.818 27.5043Z" fill="#4BBDFF"/>
<path d="M414.025 27.8708C414.025 27.8708 419.54 20.5339 420.764 21.5544C421.988 22.575 415.25 36.026 415.25 36.026" fill="#FFE6CC"/>
<path d="M404.842 7.58105H390.969V9.3923H404.842V7.58105Z" fill="white"/>
<path d="M422.577 12.3906H390.975V14.2019H422.577V12.3906Z" fill="white"/>
</g>
<defs>
<clipPath id="clip0_3124_655">
<rect width="523" height="293" fill="white"/>
</clipPath>
</defs>
</svg>
