<svg width="21" height="21" viewBox="0 0 21 21" fill="none" xmlns="http://www.w3.org/2000/svg">
<path d="M9.27856 6.27794H10.9416V7.94097H9.27856V6.27794ZM9.27856 9.604H10.9416V14.5931H9.27856V9.604ZM10.1101 2.12036C5.52011 2.12036 1.79492 5.84555 1.79492 10.4355C1.79492 15.0255 5.52011 18.7507 10.1101 18.7507C14.7 18.7507 18.4252 15.0255 18.4252 10.4355C18.4252 5.84555 14.7 2.12036 10.1101 2.12036ZM10.1101 17.0876C6.44309 17.0876 3.45795 14.1025 3.45795 10.4355C3.45795 6.76853 6.44309 3.78339 10.1101 3.78339C13.7771 3.78339 16.7622 6.76853 16.7622 10.4355C16.7622 14.1025 13.7771 17.0876 10.1101 17.0876Z" fill="white"/>
</svg>
