<svg width="21" height="21" viewBox="0 0 21 21" fill="none" xmlns="http://www.w3.org/2000/svg">
<path d="M9.6809 6.38585H11.3439V8.04888H9.6809V6.38585ZM9.6809 9.71191H11.3439V14.701H9.6809V9.71191ZM10.5124 2.22827C5.92245 2.22827 2.19727 5.95346 2.19727 10.5434C2.19727 15.1334 5.92245 18.8586 10.5124 18.8586C15.1024 18.8586 18.8276 15.1334 18.8276 10.5434C18.8276 5.95346 15.1024 2.22827 10.5124 2.22827ZM10.5124 17.1955C6.84544 17.1955 3.8603 14.2104 3.8603 10.5434C3.8603 6.87644 6.84544 3.8913 10.5124 3.8913C14.1794 3.8913 17.1645 6.87644 17.1645 10.5434C17.1645 14.2104 14.1794 17.1955 10.5124 17.1955Z" fill="#1849D6"/>
</svg>
