<svg width="21" height="21" viewBox="0 0 21 21" fill="none" xmlns="http://www.w3.org/2000/svg">
<path d="M9.26879 6.27794H10.9318V7.94097H9.26879V6.27794ZM9.26879 9.604H10.9318V14.5931H9.26879V9.604ZM10.1003 2.12036C5.51034 2.12036 1.78516 5.84555 1.78516 10.4355C1.78516 15.0255 5.51034 18.7507 10.1003 18.7507C14.6903 18.7507 18.4155 15.0255 18.4155 10.4355C18.4155 5.84555 14.6903 2.12036 10.1003 2.12036ZM10.1003 17.0876C6.43333 17.0876 3.44819 14.1025 3.44819 10.4355C3.44819 6.76853 6.43333 3.78339 10.1003 3.78339C13.7673 3.78339 16.7524 6.76853 16.7524 10.4355C16.7524 14.1025 13.7673 17.0876 10.1003 17.0876Z" fill="white"/>
</svg>
