<svg width="33" height="34" viewBox="0 0 33 34" fill="none" xmlns="http://www.w3.org/2000/svg">
<path d="M15.1596 10.2954H17.8413V12.9771H15.1596V10.2954ZM15.1596 15.6589H17.8413V23.7041H15.1596V15.6589ZM16.5005 3.59106C9.09888 3.59106 3.0918 9.59815 3.0918 16.9997C3.0918 24.4013 9.09888 30.4084 16.5005 30.4084C23.9021 30.4084 29.9091 24.4013 29.9091 16.9997C29.9091 9.59815 23.9021 3.59106 16.5005 3.59106ZM16.5005 27.7267C10.5872 27.7267 5.77353 22.913 5.77353 16.9997C5.77353 11.0865 10.5872 6.2728 16.5005 6.2728C22.4137 6.2728 27.2274 11.0865 27.2274 16.9997C27.2274 22.913 22.4137 27.7267 16.5005 27.7267Z" fill="white"/>
</svg>
