<svg width="34" height="34" viewBox="0 0 34 34" fill="none" xmlns="http://www.w3.org/2000/svg">
<path d="M15.6596 10.2956H18.3413V12.9774H15.6596V10.2956ZM15.6596 15.6591H18.3413V23.7043H15.6596V15.6591ZM17.0005 3.59131C9.59888 3.59131 3.5918 9.59839 3.5918 17C3.5918 24.4016 9.59888 30.4087 17.0005 30.4087C24.4021 30.4087 30.4091 24.4016 30.4091 17C30.4091 9.59839 24.4021 3.59131 17.0005 3.59131ZM17.0005 27.7269C11.0872 27.7269 6.27353 22.9132 6.27353 17C6.27353 11.0868 11.0872 6.27304 17.0005 6.27304C22.9137 6.27304 27.7274 11.0868 27.7274 17C27.7274 22.9132 22.9137 27.7269 17.0005 27.7269Z" fill="white"/>
</svg>
