<svg width="27" height="26" viewBox="0 0 27 26" fill="none" xmlns="http://www.w3.org/2000/svg">
<path d="M12.4267 7.73407H14.5721V9.87946H12.4267V7.73407ZM12.4267 12.0248H14.5721V18.461H12.4267V12.0248ZM13.4994 2.37061C7.57813 2.37061 2.77246 7.17627 2.77246 13.0975C2.77246 19.0188 7.57813 23.8245 13.4994 23.8245C19.4207 23.8245 24.2263 19.0188 24.2263 13.0975C24.2263 7.17627 19.4207 2.37061 13.4994 2.37061ZM13.4994 21.6791C8.76882 21.6791 4.91785 17.8281 4.91785 13.0975C4.91785 8.36696 8.76882 4.51599 13.4994 4.51599C18.23 4.51599 22.0809 8.36696 22.0809 13.0975C22.0809 17.8281 18.23 21.6791 13.4994 21.6791Z" fill="#1849D6"/>
</svg>
