<svg width="26" height="26" viewBox="0 0 26 26" fill="none" xmlns="http://www.w3.org/2000/svg">
<path d="M11.6397 8.01582H13.7185V10.0946H11.6397V8.01582ZM11.6397 12.1734H13.7185V18.4098H11.6397V12.1734ZM12.6791 2.81885C6.94164 2.81885 2.28516 7.47533 2.28516 13.2128C2.28516 18.9502 6.94164 23.6067 12.6791 23.6067C18.4166 23.6067 23.073 18.9502 23.073 13.2128C23.073 7.47533 18.4166 2.81885 12.6791 2.81885ZM12.6791 21.5279C8.09537 21.5279 4.36394 17.7965 4.36394 13.2128C4.36394 8.62906 8.09537 4.89764 12.6791 4.89764C17.2628 4.89764 20.9942 8.62906 20.9942 13.2128C20.9942 17.7965 17.2628 21.5279 12.6791 21.5279Z" fill="white"/>
</svg>
