<svg width="26" height="26" viewBox="0 0 26 26" fill="none" xmlns="http://www.w3.org/2000/svg">
<path d="M11.7706 8.01582H13.8493V10.0946H11.7706V8.01582ZM11.7706 12.1734H13.8493V18.4098H11.7706V12.1734ZM12.81 2.81885C7.0725 2.81885 2.41602 7.47533 2.41602 13.2128C2.41602 18.9502 7.0725 23.6067 12.81 23.6067C18.5474 23.6067 23.2039 18.9502 23.2039 13.2128C23.2039 7.47533 18.5474 2.81885 12.81 2.81885ZM12.81 21.5279C8.22623 21.5279 4.4948 17.7965 4.4948 13.2128C4.4948 8.62906 8.22623 4.89764 12.81 4.89764C17.3937 4.89764 21.1251 8.62906 21.1251 13.2128C21.1251 17.7965 17.3937 21.5279 12.81 21.5279Z" fill="#1849D6"/>
</svg>
