<svg width="41" height="41" viewBox="0 0 41 41" fill="none" xmlns="http://www.w3.org/2000/svg">
<circle cx="20.5" cy="20.5" r="20.5" fill="white"/>
<circle cx="20.5" cy="20.5" r="20.5" fill="white"/>
<path d="M20.1216 32.0002C18.5916 32.0002 17.3457 30.518 17.3457 28.6956C17.3457 28.3308 17.5944 28.0347 17.9009 28.0347C18.2073 28.0347 18.456 28.3308 18.456 28.6956C18.456 29.7893 19.2037 30.6783 20.1216 30.6783C21.0394 30.6783 21.7871 29.7893 21.7871 28.6956C21.7871 28.3308 22.0358 28.0347 22.3423 28.0347C22.6487 28.0347 22.8974 28.3308 22.8974 28.6956C22.8974 30.518 21.6517 32.0002 20.1216 32.0002Z" fill="#636567"/>
<path d="M20.1216 32.0002C18.5916 32.0002 17.3457 30.518 17.3457 28.6956C17.3457 28.3308 17.5944 28.0347 17.9009 28.0347C18.2073 28.0347 18.456 28.3308 18.456 28.6956C18.456 29.7893 19.2037 30.6783 20.1216 30.6783C21.0394 30.6783 21.7871 29.7893 21.7871 28.6956C21.7871 28.3308 22.0358 28.0347 22.3423 28.0347C22.6487 28.0347 22.8974 28.3308 22.8974 28.6956C22.8974 30.518 21.6517 32.0002 20.1216 32.0002Z" fill="#636567"/>
<path d="M26.9215 28.8275H12.5267C11.6848 28.8275 11 28.1012 11 27.2083C11 26.7345 11.1946 26.2858 11.5339 25.9776C11.5557 25.9573 11.5792 25.9388 11.6037 25.9221C12.8843 24.7368 13.6172 23.0315 13.6172 21.2308V18.6493C13.6172 15.0778 16.3575 12.1724 19.7241 12.1724C19.8637 12.1724 20.0146 12.1751 20.1542 12.2001C20.511 12.263 20.7518 12.6212 20.6924 12.9986C20.6332 13.3761 20.2894 13.6316 19.9396 13.5686C19.8697 13.5566 19.7931 13.5603 19.7241 13.5603C17.079 13.5603 14.9259 15.843 14.9259 18.6493V21.2308C14.9259 23.4664 14.0019 25.5817 12.3933 27.0333C12.3802 27.0445 12.3688 27.0547 12.3548 27.0648C12.3313 27.0963 12.3086 27.1445 12.3086 27.2083C12.3086 27.3341 12.4081 27.4396 12.5267 27.4396H26.9215C27.0401 27.4396 27.1397 27.3341 27.1397 27.2083C27.1397 27.1434 27.117 27.0963 27.0925 27.0648C27.0794 27.0547 27.0681 27.0445 27.055 27.0333C25.4454 25.5807 24.5224 23.4664 24.5224 21.2308V20.2224C24.5224 19.8394 24.8156 19.5285 25.1767 19.5285C25.5379 19.5285 25.831 19.8394 25.831 20.2224V21.2308C25.831 23.0325 26.5647 24.7386 27.8472 25.9249C27.8706 25.9415 27.8933 25.9592 27.9143 25.9787C28.2537 26.2858 28.4483 26.7345 28.4483 27.2083C28.4483 28.1012 27.7635 28.8275 26.9215 28.8275Z" fill="#636567"/>
<path d="M26.9215 28.8275H12.5267C11.6848 28.8275 11 28.1012 11 27.2083C11 26.7345 11.1946 26.2858 11.5339 25.9776C11.5557 25.9573 11.5792 25.9388 11.6037 25.9221C12.8843 24.7368 13.6172 23.0315 13.6172 21.2308V18.6493C13.6172 15.0778 16.3575 12.1724 19.7241 12.1724C19.8637 12.1724 20.0146 12.1751 20.1542 12.2001C20.511 12.263 20.7518 12.6212 20.6924 12.9986C20.6332 13.3761 20.2894 13.6316 19.9396 13.5686C19.8697 13.5566 19.7931 13.5603 19.7241 13.5603C17.079 13.5603 14.9259 15.843 14.9259 18.6493V21.2308C14.9259 23.4664 14.0019 25.5817 12.3933 27.0333C12.3802 27.0445 12.3688 27.0547 12.3548 27.0648C12.3313 27.0963 12.3086 27.1445 12.3086 27.2083C12.3086 27.3341 12.4081 27.4396 12.5267 27.4396H26.9215C27.0401 27.4396 27.1397 27.3341 27.1397 27.2083C27.1397 27.1434 27.117 27.0963 27.0925 27.0648C27.0794 27.0547 27.0681 27.0445 27.055 27.0333C25.4454 25.5807 24.5224 23.4664 24.5224 21.2308V20.2224C24.5224 19.8394 24.8156 19.5285 25.1767 19.5285C25.5379 19.5285 25.831 19.8394 25.831 20.2224V21.2308C25.831 23.0325 26.5647 24.7386 27.8472 25.9249C27.8706 25.9415 27.8933 25.9592 27.9143 25.9787C28.2537 26.2858 28.4483 26.7345 28.4483 27.2083C28.4483 28.1012 27.7635 28.8275 26.9215 28.8275Z" fill="#636567"/>
<path d="M26.0691 19.3103C23.8825 19.3103 22.1035 16.9979 22.1035 14.1553C22.1035 11.3127 23.8825 9 26.0691 9C28.2557 9 30.0346 11.3127 30.0346 14.1553C30.0346 16.9979 28.2557 19.3103 26.0691 19.3103ZM26.0691 10.5466C24.5383 10.5466 23.2932 12.1652 23.2932 14.1553C23.2932 16.1451 24.5383 17.7638 26.0691 17.7638C27.5998 17.7638 28.8449 16.1451 28.8449 14.1553C28.8449 12.1652 27.5998 10.5466 26.0691 10.5466Z" fill="#FE5C73"/>
</svg>
