<svg width="23" height="22" viewBox="0 0 23 22" fill="none" xmlns="http://www.w3.org/2000/svg">
<path d="M22.1455 7.68778L14.8122 0.354444C14.6996 0.244504 14.5668 0.157353 14.4211 0.0977777C14.2696 0.0361985 14.108 0.00305321 13.9444 0H4.16666C3.1942 0 2.26157 0.386309 1.57394 1.07394C0.886308 1.76158 0.5 2.69421 0.5 3.66667V18.3333C0.5 19.3058 0.886308 20.2384 1.57394 20.9261C2.26157 21.6137 3.1942 22 4.16666 22H18.8333C19.8058 22 20.7384 21.6137 21.426 20.9261C22.1137 20.2384 22.5 19.3058 22.5 18.3333V8.55556C22.5009 8.3947 22.4701 8.23525 22.4093 8.08634C22.3484 7.93742 22.2588 7.80198 22.1455 7.68778ZM7.83333 2.44444H12.7222V4.88889H7.83333V2.44444ZM15.1667 19.5556H7.83333V15.8889C7.83333 15.5647 7.9621 15.2539 8.19131 15.0246C8.42052 14.7954 8.73139 14.6667 9.05555 14.6667H13.9444C14.2686 14.6667 14.5795 14.7954 14.8087 15.0246C15.0379 15.2539 15.1667 15.5647 15.1667 15.8889V19.5556ZM20.0555 18.3333C20.0555 18.6575 19.9268 18.9684 19.6976 19.1976C19.4683 19.4268 19.1575 19.5556 18.8333 19.5556H17.6111V15.8889C17.6111 14.9164 17.2248 13.9838 16.5372 13.2962C15.8495 12.6085 14.9169 12.2222 13.9444 12.2222H9.05555C8.08309 12.2222 7.15046 12.6085 6.46282 13.2962C5.77519 13.9838 5.38888 14.9164 5.38888 15.8889V19.5556H4.16666C3.84251 19.5556 3.53163 19.4268 3.30242 19.1976C3.07321 18.9684 2.94444 18.6575 2.94444 18.3333V3.66667C2.94444 3.34251 3.07321 3.03164 3.30242 2.80243C3.53163 2.57321 3.84251 2.44444 4.16666 2.44444H5.38888V6.11111C5.38888 6.43526 5.51765 6.74614 5.74686 6.97535C5.97608 7.20456 6.28695 7.33333 6.6111 7.33333H13.9444C14.2686 7.33333 14.5795 7.20456 14.8087 6.97535C15.0379 6.74614 15.1667 6.43526 15.1667 6.11111V4.16778L20.0555 9.05667V18.3333Z" fill="#666E7D"/>
</svg>
