<svg width="16" height="17" viewBox="0 0 16 17" fill="none" xmlns="http://www.w3.org/2000/svg">
<path d="M15.7658 7.87154L9.3657 0.760261C9.25382 0.635983 9.11128 0.551353 8.95612 0.51707C8.80096 0.482787 8.64013 0.50039 8.49397 0.567654C8.34781 0.634918 8.22287 0.748822 8.13496 0.894968C8.04706 1.04111 8.00012 1.21294 8.00009 1.38872V4.53991C5.81469 4.76462 3.78342 5.88737 2.30378 7.68845C0.824132 9.48953 0.00261741 11.8393 0 14.2779V15.6113C0.000126286 15.7958 0.0519283 15.9757 0.148221 16.126C0.244513 16.2764 0.380524 16.3897 0.537386 16.4503C0.694249 16.5108 0.864189 16.5157 1.02363 16.4641C1.18308 16.4125 1.32413 16.3071 1.42722 16.1624C2.21098 15.1268 3.17264 14.2751 4.256 13.6571C5.33936 13.0391 6.5227 12.6673 7.73688 12.5632C7.77688 12.5579 7.87688 12.549 8.00009 12.5401V15.6113C8.00012 15.7871 8.04706 15.9589 8.13496 16.105C8.22287 16.2512 8.34781 16.3651 8.49397 16.4323C8.64013 16.4996 8.80096 16.5172 8.95612 16.4829C9.11128 16.4486 9.25382 16.364 9.3657 16.2397L15.7658 9.12846C15.9157 8.96177 16 8.73571 16 8.5C16 8.26429 15.9157 8.03824 15.7658 7.87154ZM9.6001 13.4655V11.6112C9.6001 11.3754 9.51582 11.1493 9.36579 10.9826C9.21575 10.8159 9.01227 10.7223 8.80009 10.7223C8.59609 10.7223 7.76328 10.7667 7.55048 10.7978C5.39435 11.0186 3.34197 11.9288 1.64162 13.4183C1.83461 11.4578 2.67166 9.64522 3.99249 8.32769C5.31331 7.01016 7.0251 6.28026 8.80009 6.27773C9.01227 6.27773 9.21575 6.18407 9.36579 6.01737C9.51582 5.85067 9.6001 5.62457 9.6001 5.38882V3.53455L14.069 8.5L9.6001 13.4655Z" fill="#1640C1"/>
</svg>
