<svg width="23" height="22" viewBox="0 0 23 22" fill="none" xmlns="http://www.w3.org/2000/svg">
<path d="M22.1779 10.1359L13.3778 0.357859C13.224 0.186977 13.028 0.0706107 12.8147 0.0234715C12.6013 -0.0236678 12.3802 0.000536508 12.1792 0.0930243C11.9782 0.185512 11.8065 0.342131 11.6856 0.543081C11.5647 0.744031 11.5002 0.98029 11.5001 1.22199V5.55487C8.49521 5.86385 5.7022 7.40763 3.66769 9.88412C1.63318 12.3606 0.503599 15.5915 0.5 18.9446V20.778C0.500174 21.0317 0.571401 21.2791 0.703804 21.4858C0.836206 21.6925 1.02322 21.8483 1.23891 21.9316C1.45459 22.0149 1.68826 22.0215 1.9075 21.9506C2.12674 21.8797 2.32068 21.7347 2.46242 21.5358C3.5401 20.1118 4.86238 18.9408 6.352 18.091C7.84162 17.2413 9.46872 16.73 11.1382 16.5869C11.1932 16.5796 11.3307 16.5674 11.5001 16.5551V20.778C11.5002 21.0197 11.5647 21.256 11.6856 21.4569C11.8065 21.6579 11.9782 21.8145 12.1792 21.907C12.3802 21.9995 12.6013 22.0237 12.8147 21.9765C13.028 21.9294 13.224 21.813 13.3778 21.6421L22.1779 11.8641C22.3842 11.6349 22.5 11.3241 22.5 11C22.5 10.6759 22.3842 10.3651 22.1779 10.1359ZM13.7001 17.8275V15.2779C13.7001 14.9537 13.5842 14.6428 13.378 14.4136C13.1717 14.1844 12.8919 14.0556 12.6001 14.0556C12.3196 14.0556 11.1745 14.1167 10.8819 14.1595C7.91723 14.463 5.09521 15.7146 2.75722 17.7627C3.0226 15.067 4.17353 12.5747 5.98967 10.7631C7.8058 8.95147 10.1595 7.94785 12.6001 7.94437C12.8919 7.94437 13.1717 7.8156 13.378 7.58638C13.5842 7.35717 13.7001 7.04628 13.7001 6.72212V4.1725L19.8448 11L13.7001 17.8275Z" fill="#6C7278"/>
</svg>
