<svg width="101" height="93" viewBox="0 0 101 93" fill="none" xmlns="http://www.w3.org/2000/svg">
<path d="M34.3567 0L36.8847 10.2724C38.3156 16.0867 39.031 18.9938 40.5507 21.3383C41.8945 23.4115 43.6844 25.1582 45.7898 26.4509C48.1707 27.9128 51.0945 28.557 56.942 29.8454L68.4394 32.3786L56.942 34.9118C51.0945 36.2002 48.1707 36.8444 45.7898 38.3063C43.6844 39.599 41.8945 41.3458 40.5507 43.4189C39.031 45.7634 38.3156 48.6706 36.8847 54.4849L34.3567 64.7572L31.8286 54.4849C30.3977 48.6706 29.6823 45.7634 28.1627 43.4189C26.8189 41.3458 25.0289 39.599 22.9235 38.3063C20.5426 36.8444 17.6188 36.2002 11.7713 34.9118L0.273926 32.3786L11.7713 29.8454C17.6188 28.557 20.5426 27.9128 22.9235 26.4509C25.0289 25.1582 26.8189 23.4115 28.1627 21.3383C29.6823 18.9938 30.3977 16.0867 31.8286 10.2724L34.3567 0Z" fill="#1640C1"/>
<path d="M78.9992 51.1241L79.2223 52.0407C80.6383 57.86 81.3464 60.7697 82.8604 63.1185C84.1991 65.1955 85.9851 66.9471 88.0878 68.2452C90.4656 69.7133 93.3885 70.3646 99.2343 71.6672L100.727 71.9998L99.2343 72.3324C93.3885 73.6351 90.4656 74.2864 88.0878 75.7544C85.9851 77.0525 84.1991 78.8041 82.8604 80.8811C81.3464 83.2299 80.6383 86.1396 79.2223 91.959L78.9992 92.8755L78.7762 91.959C77.3601 86.1396 76.6521 83.2299 75.1381 80.8811C73.7993 78.8041 72.0133 77.0525 69.9107 75.7544C67.5329 74.2864 64.61 73.6351 58.7642 72.3324L57.2715 71.9998L58.7642 71.6672C64.61 70.3646 67.5329 69.7133 69.9107 68.2452C72.0133 66.9471 73.7993 65.1955 75.1381 63.1185C76.6521 60.7697 77.3601 57.86 78.7762 52.0407L78.9992 51.1241Z" fill="#1640C1"/>
</svg>
