<svg width="21" height="20" viewBox="0 0 21 20" fill="none" xmlns="http://www.w3.org/2000/svg">
<path d="M18.3304 10C18.1094 10 17.8974 10.0878 17.7411 10.2441C17.5849 10.4004 17.4971 10.6124 17.4971 10.8334V15.8334C17.4971 16.0544 17.4093 16.2663 17.253 16.4226C17.0967 16.5789 16.8848 16.6667 16.6637 16.6667H4.99707C4.77606 16.6667 4.5641 16.5789 4.40781 16.4226C4.25153 16.2663 4.16374 16.0544 4.16374 15.8334V4.1667C4.16374 3.94568 4.25153 3.73372 4.40781 3.57744C4.5641 3.42116 4.77606 3.33336 4.99707 3.33336H9.99707C10.2181 3.33336 10.43 3.24557 10.5863 3.08929C10.7426 2.93301 10.8304 2.72104 10.8304 2.50003C10.8304 2.27902 10.7426 2.06706 10.5863 1.91077C10.43 1.75449 10.2181 1.6667 9.99707 1.6667H4.99707C4.33403 1.6667 3.69814 1.93009 3.2293 2.39893C2.76046 2.86777 2.49707 3.50366 2.49707 4.1667V15.8334C2.49707 16.4964 2.76046 17.1323 3.2293 17.6011C3.69814 18.07 4.33403 18.3334 4.99707 18.3334H16.6637C17.3268 18.3334 17.9627 18.07 18.4315 17.6011C18.9003 17.1323 19.1637 16.4964 19.1637 15.8334V10.8334C19.1637 10.6124 19.0759 10.4004 18.9197 10.2441C18.7634 10.0878 18.5514 10 18.3304 10ZM5.8304 10.6334V14.1667C5.8304 14.3877 5.9182 14.5997 6.07448 14.756C6.23076 14.9122 6.44272 15 6.66374 15H10.1971C10.3067 15.0007 10.4155 14.9796 10.517 14.9382C10.6185 14.8967 10.7109 14.8356 10.7887 14.7584L16.5554 8.98336L18.9221 6.6667C19.0002 6.58923 19.0622 6.49706 19.1045 6.39551C19.1468 6.29396 19.1686 6.18504 19.1686 6.07503C19.1686 5.96502 19.1468 5.8561 19.1045 5.75455C19.0622 5.653 19.0002 5.56083 18.9221 5.48336L15.3887 1.90836C15.3113 1.83026 15.2191 1.76826 15.1176 1.72595C15.016 1.68365 14.9071 1.66187 14.7971 1.66187C14.6871 1.66187 14.5781 1.68365 14.4766 1.72595C14.375 1.76826 14.2829 1.83026 14.2054 1.90836L11.8554 4.2667L6.07207 10.0417C5.99484 10.1196 5.93373 10.2119 5.89226 10.3134C5.85079 10.415 5.82977 10.5237 5.8304 10.6334ZM14.7971 3.67503L17.1554 6.03336L15.9721 7.2167L13.6137 4.85836L14.7971 3.67503ZM7.49707 10.975L12.4387 6.03336L14.7971 8.3917L9.8554 13.3334H7.49707V10.975Z" fill="#424866"/>
</svg>
