<svg width="21" height="20" viewBox="0 0 21 20" fill="none" xmlns="http://www.w3.org/2000/svg">
<path d="M6.66374 8.33341C6.49892 8.33341 6.3378 8.38229 6.20076 8.47386C6.06372 8.56542 5.95691 8.69557 5.89384 8.84784C5.83076 9.00012 5.81426 9.16767 5.84642 9.32932C5.87857 9.49097 5.95794 9.63946 6.07448 9.756C6.19103 9.87255 6.33951 9.95191 6.50116 9.98407C6.66281 10.0162 6.83037 9.99972 6.98264 9.93665C7.13491 9.87357 7.26506 9.76676 7.35663 9.62972C7.4482 9.49268 7.49707 9.33157 7.49707 9.16675C7.49707 8.94573 7.40927 8.73377 7.25299 8.57749C7.09671 8.42121 6.88475 8.33341 6.66374 8.33341ZM16.6637 5.00008H15.8304V2.50008C15.8304 2.27907 15.7426 2.06711 15.5863 1.91083C15.43 1.75455 15.2181 1.66675 14.9971 1.66675H6.66374C6.44272 1.66675 6.23076 1.75455 6.07448 1.91083C5.9182 2.06711 5.8304 2.27907 5.8304 2.50008V5.00008H4.99707C4.33403 5.00008 3.69814 5.26347 3.2293 5.73231C2.76046 6.20116 2.49707 6.83704 2.49707 7.50008V12.5001C2.49707 13.1631 2.76046 13.799 3.2293 14.2678C3.69814 14.7367 4.33403 15.0001 4.99707 15.0001H5.8304V17.5001C5.8304 17.7211 5.9182 17.9331 6.07448 18.0893C6.23076 18.2456 6.44272 18.3334 6.66374 18.3334H14.9971C15.2181 18.3334 15.43 18.2456 15.5863 18.0893C15.7426 17.9331 15.8304 17.7211 15.8304 17.5001V15.0001H16.6637C17.3268 15.0001 17.9627 14.7367 18.4315 14.2678C18.9003 13.799 19.1637 13.1631 19.1637 12.5001V7.50008C19.1637 6.83704 18.9003 6.20116 18.4315 5.73231C17.9627 5.26347 17.3268 5.00008 16.6637 5.00008ZM7.49707 3.33341H14.1637V5.00008H7.49707V3.33341ZM14.1637 16.6667H7.49707V13.3334H14.1637V16.6667ZM17.4971 12.5001C17.4971 12.7211 17.4093 12.9331 17.253 13.0893C17.0967 13.2456 16.8848 13.3334 16.6637 13.3334H15.8304V12.5001C15.8304 12.2791 15.7426 12.0671 15.5863 11.9108C15.43 11.7545 15.2181 11.6667 14.9971 11.6667H6.66374C6.44272 11.6667 6.23076 11.7545 6.07448 11.9108C5.9182 12.0671 5.8304 12.2791 5.8304 12.5001V13.3334H4.99707C4.77606 13.3334 4.5641 13.2456 4.40781 13.0893C4.25153 12.9331 4.16374 12.7211 4.16374 12.5001V7.50008C4.16374 7.27907 4.25153 7.06711 4.40781 6.91083C4.5641 6.75455 4.77606 6.66675 4.99707 6.66675H16.6637C16.8848 6.66675 17.0967 6.75455 17.253 6.91083C17.4093 7.06711 17.4971 7.27907 17.4971 7.50008V12.5001Z" fill="#424866"/>
</svg>
