<svg width="69" height="69" viewBox="0 0 69 69" fill="none" xmlns="http://www.w3.org/2000/svg">
<g clip-path="url(#clip0_3124_8114)">
<path d="M54.5206 5.92334H23.5186V18.7796H61.1418V12.542C61.1418 8.89212 58.1715 5.92334 54.5206 5.92334Z" fill="#CED9F9"/>
<path d="M36.97 20.7573H0.709961V8.82808C0.709961 4.45689 4.26703 0.901367 8.63977 0.901367H20.2334C21.3857 0.901367 22.4958 1.14421 23.5043 1.60051C24.9129 2.2352 26.123 3.28134 26.9716 4.64818L36.97 20.7573Z" fill="#1640C1"/>
<path d="M68.2897 23.4285V61.8546C68.2897 65.5091 65.3147 68.4815 61.6586 68.4815H7.34099C3.68493 68.4815 0.709961 65.5091 0.709961 61.8546V16.8H61.6586C65.3147 16.8 68.2897 19.7735 68.2897 23.4285Z" fill="#2354E6"/>
<path d="M68.2899 23.4285V61.8546C68.2899 65.5091 65.3149 68.4815 61.6588 68.4815H34.5V16.8H61.6588C65.3149 16.8 68.2899 19.7735 68.2899 23.4285Z" fill="#1849D6"/>
<path d="M52.2768 42.6391C52.2768 52.4421 44.3021 60.4173 34.5002 60.4173C24.6983 60.4173 16.7236 52.4421 16.7236 42.6391C16.7236 32.8377 24.6983 24.8625 34.5002 24.8625C44.3021 24.8625 52.2768 32.8377 52.2768 42.6391Z" fill="#E7ECFC"/>
<path d="M52.2766 42.6391C52.2766 52.4421 44.3019 60.4173 34.5 60.4173V24.8625C44.3019 24.8625 52.2766 32.8377 52.2766 42.6391Z" fill="#CED9F9"/>
<path d="M40.2305 42.8583C39.8598 43.1723 39.4056 43.3255 38.9555 43.3255C38.3919 43.3255 37.832 43.0867 37.4402 42.6217L36.4806 41.4843V48.931C36.4806 50.024 35.5938 50.9109 34.5008 50.9109C33.4077 50.9109 32.5209 50.024 32.5209 48.931V41.4843L31.5614 42.6217C30.855 43.4574 29.6068 43.5642 28.771 42.8583C27.9357 42.1535 27.8285 40.9048 28.5333 40.069L32.4523 35.423C32.9633 34.8187 33.7088 34.4712 34.5008 34.4712C35.2927 34.4712 36.0383 34.8187 36.5492 35.423L40.4682 40.069C41.173 40.9048 41.0658 42.1535 40.2305 42.8583Z" fill="#6C8DEF"/>
<path d="M40.2298 42.8583C39.8591 43.1723 39.4048 43.3255 38.9547 43.3255C38.3912 43.3255 37.8312 43.0867 37.4394 42.6217L36.4799 41.4843V48.931C36.4799 50.024 35.5931 50.9109 34.5 50.9109V34.4712C35.2919 34.4712 36.0375 34.8187 36.5484 35.423L40.4675 40.069C41.1723 40.9048 41.065 42.1535 40.2298 42.8583Z" fill="#3B67E9"/>
</g>
<defs>
<clipPath id="clip0_3124_8114">
<rect width="67.5797" height="67.5797" fill="white" transform="translate(0.709961 0.901611)"/>
</clipPath>
</defs>
</svg>
