<svg width="54" height="53" viewBox="0 0 54 53" fill="none" xmlns="http://www.w3.org/2000/svg">
<g clip-path="url(#clip0_3124_4182)">
<path d="M42.518 4.14307H18.4863V14.1088H47.6506V9.27362C47.6506 6.44436 45.3481 4.14307 42.518 4.14307Z" fill="#CED9F9"/>
<path d="M28.9161 15.6424H0.808594V6.39525C0.808594 3.00685 3.56591 0.250732 6.95551 0.250732H15.9425C16.8357 0.250732 17.6962 0.438977 18.478 0.792684C19.5699 1.28468 20.5079 2.09561 21.1657 3.15513L28.9161 15.6424Z" fill="#1640C1"/>
<path d="M53.194 17.7126V47.4992C53.194 50.332 50.888 52.6361 48.0539 52.6361H5.94874C3.11469 52.6361 0.808594 50.332 0.808594 47.4992V12.5745H48.0539C50.888 12.5745 53.194 14.8794 53.194 17.7126Z" fill="#2354E6"/>
<path d="M53.1947 17.7126V47.4992C53.1947 50.332 50.8886 52.6361 48.0545 52.6361H27.002V12.5745H48.0545C50.8886 12.5745 53.1947 14.8794 53.1947 17.7126Z" fill="#1849D6"/>
<path d="M40.7803 32.6047C40.7803 40.2037 34.5986 46.3857 27.0005 46.3857C19.4024 46.3857 13.2207 40.2037 13.2207 32.6047C13.2207 25.007 19.4024 18.825 27.0005 18.825C34.5986 18.825 40.7803 25.007 40.7803 32.6047Z" fill="#E7ECFC"/>
<path d="M40.7818 32.6047C40.7818 40.2037 34.6001 46.3857 27.002 46.3857V18.825C34.6001 18.825 40.7818 25.007 40.7818 32.6047Z" fill="#CED9F9"/>
<path d="M31.4421 32.7736C31.1548 33.017 30.8027 33.1357 30.4537 33.1357C30.0169 33.1357 29.5829 32.9507 29.2791 32.5902L28.5353 31.7085V37.4809C28.5353 38.3282 27.8479 39.0157 27.0006 39.0157C26.1533 39.0157 25.4659 38.3282 25.4659 37.4809V31.7085L24.7221 32.5902C24.1745 33.2381 23.2069 33.3208 22.5591 32.7736C21.9116 32.2273 21.8285 31.2593 22.3748 30.6114L25.4127 27.01C25.8088 26.5416 26.3867 26.2722 27.0006 26.2722C27.6145 26.2722 28.1924 26.5416 28.5885 27.01L31.6264 30.6114C32.1727 31.2593 32.0896 32.2273 31.4421 32.7736Z" fill="#6C8DEF"/>
<path d="M31.4435 32.7736C31.1561 33.017 30.804 33.1357 30.4551 33.1357C30.0183 33.1357 29.5842 32.9507 29.2805 32.5902L28.5367 31.7085V37.4809C28.5367 38.3282 27.8493 39.0157 27.002 39.0157V26.2722C27.6158 26.2722 28.1938 26.5416 28.5898 27.01L31.6277 30.6114C32.1741 31.2593 32.0909 32.2273 31.4435 32.7736Z" fill="#3B67E9"/>
</g>
<defs>
<clipPath id="clip0_3124_4182">
<rect width="52.3855" height="52.3855" fill="white" transform="translate(0.808594 0.250732)"/>
</clipPath>
</defs>
</svg>
