<svg width="26" height="25" viewBox="0 0 26 25" fill="none" xmlns="http://www.w3.org/2000/svg">
<path d="M23.4574 13.3249C23.2534 13.0968 23.1409 12.8036 23.1409 12.5C23.1409 12.1964 23.2534 11.9032 23.4574 11.6751L25.086 9.87536C25.2654 9.67872 25.3769 9.4313 25.4043 9.16859C25.4317 8.90588 25.3737 8.64138 25.2386 8.41306L22.694 4.08864C22.5603 3.86058 22.3567 3.6798 22.1122 3.57207C21.8677 3.46435 21.5949 3.43518 21.3326 3.48873L18.9406 3.96366C18.6362 4.02544 18.3193 3.97565 18.0498 3.82368C17.7802 3.67171 17.5766 3.42809 17.4774 3.13877L16.7013 0.851584C16.6159 0.603342 16.4533 0.387728 16.2364 0.23522C16.0195 0.0827124 15.7593 0.00102336 15.4925 0.00169972H10.4032C10.1257 -0.0125259 9.85116 0.0628494 9.62141 0.216313C9.39167 0.369777 9.21937 0.592893 9.13085 0.851584L8.41833 3.13877C8.31909 3.42809 8.11548 3.67171 7.84593 3.82368C7.57637 3.97565 7.25951 4.02544 6.95515 3.96366L4.49953 3.48873C4.25086 3.45421 3.99734 3.49275 3.77093 3.59951C3.54451 3.70627 3.35532 3.87646 3.2272 4.08864L0.682518 8.41306C0.544037 8.63884 0.481771 8.90185 0.504623 9.16448C0.527475 9.42712 0.634274 9.67593 0.809752 9.87536L2.42562 11.6751C2.6296 11.9032 2.7421 12.1964 2.7421 12.5C2.7421 12.8036 2.6296 13.0968 2.42562 13.3249L0.809752 15.1246C0.634274 15.3241 0.527475 15.5729 0.504623 15.8355C0.481771 16.0982 0.544037 16.3612 0.682518 16.5869L3.2272 20.9114C3.36091 21.1394 3.56452 21.3202 3.80897 21.4279C4.05343 21.5357 4.32627 21.5648 4.5886 21.5113L6.98059 21.0363C7.28496 20.9746 7.60182 21.0244 7.87137 21.1763C8.14093 21.3283 8.34454 21.5719 8.44378 21.8612L9.21991 24.1484C9.30844 24.4071 9.48073 24.6302 9.71048 24.7837C9.94022 24.9371 10.2148 25.0125 10.4922 24.9983H15.5816C15.8483 24.999 16.1085 24.9173 16.3254 24.7648C16.5423 24.6123 16.705 24.3967 16.7903 24.1484L17.5664 21.8612C17.6657 21.5719 17.8693 21.3283 18.1389 21.1763C18.4084 21.0244 18.7253 20.9746 19.0296 21.0363L21.4216 21.5113C21.684 21.5648 21.9568 21.5357 22.2013 21.4279C22.4457 21.3202 22.6493 21.1394 22.783 20.9114L25.3277 16.5869C25.4628 16.3586 25.5208 16.0941 25.4934 15.8314C25.4659 15.5687 25.3545 15.3213 25.175 15.1246L23.4574 13.3249ZM21.5616 14.9997L22.5795 16.1245L20.9509 18.8991L19.4495 18.5992C18.5331 18.4152 17.5799 18.5681 16.7707 19.0289C15.9615 19.4897 15.3528 20.2262 15.0599 21.0988L14.5765 22.4986H11.3193L10.8612 21.0738C10.5684 20.2013 9.95962 19.4647 9.15044 19.0039C8.34127 18.5431 7.38802 18.3902 6.47166 18.5742L4.9703 18.8741L3.31626 16.112L4.33413 14.9872C4.96006 14.2997 5.30611 13.4098 5.30611 12.4875C5.30611 11.5652 4.96006 10.6753 4.33413 9.98784L3.31626 8.86299L4.94485 6.11337L6.44621 6.41333C7.36258 6.59733 8.31582 6.44442 9.125 5.98363C9.93418 5.52284 10.543 4.78625 10.8358 3.91367L11.3193 2.50136H14.5765L15.0599 3.92617C15.3528 4.79875 15.9615 5.53534 16.7707 5.99613C17.5799 6.45692 18.5331 6.60983 19.4495 6.42583L20.9509 6.12587L22.5795 8.90049L21.5616 10.0253C20.9427 10.7112 20.6009 11.596 20.6009 12.5125C20.6009 13.429 20.9427 14.3138 21.5616 14.9997ZM12.9479 7.50068C11.9413 7.50068 10.9573 7.79389 10.1204 8.34322C9.28343 8.89255 8.63111 9.67334 8.24591 10.5868C7.86071 11.5003 7.75992 12.5055 7.9563 13.4753C8.15267 14.4451 8.63738 15.3359 9.34914 16.0351C10.0609 16.7342 10.9677 17.2104 11.955 17.4033C12.9422 17.5962 13.9655 17.4972 14.8955 17.1188C15.8254 16.7404 16.6203 16.0996 17.1795 15.2775C17.7387 14.4553 18.0372 13.4888 18.0372 12.5C18.0372 11.1741 17.501 9.9025 16.5466 8.96495C15.5921 8.02739 14.2976 7.50068 12.9479 7.50068ZM12.9479 14.9997C12.4446 14.9997 11.9526 14.8531 11.5341 14.5784C11.1156 14.3037 10.7895 13.9133 10.5969 13.4566C10.4043 12.9998 10.3539 12.4972 10.4521 12.0123C10.5503 11.5275 10.7926 11.0821 11.1485 10.7325C11.5044 10.3829 11.9578 10.1448 12.4514 10.0484C12.945 9.95192 13.4567 10.0014 13.9217 10.1906C14.3866 10.3798 14.7841 10.7002 15.0637 11.1113C15.3433 11.5223 15.4925 12.0056 15.4925 12.5C15.4925 13.163 15.2244 13.7987 14.7472 14.2675C14.27 14.7363 13.6228 14.9997 12.9479 14.9997Z" fill="#1640C1"/>
</svg>
