<svg width="26" height="25" viewBox="0 0 26 25" fill="none" xmlns="http://www.w3.org/2000/svg">
<path d="M24.25 14.9998H23V2.49996H24.25C24.5815 2.49996 24.8995 2.36827 25.1339 2.13385C25.3683 1.89944 25.5 1.5815 25.5 1.24998C25.5 0.918467 25.3683 0.600529 25.1339 0.366111C24.8995 0.131694 24.5815 0 24.25 0H1.75C1.41848 0 1.10054 0.131694 0.866116 0.366111C0.631696 0.600529 0.5 0.918467 0.5 1.24998C0.5 1.5815 0.631696 1.89944 0.866116 2.13385C1.10054 2.36827 1.41848 2.49996 1.75 2.49996H3V14.9998H1.75C1.41848 14.9998 1.10054 15.1315 0.866116 15.3659C0.631696 15.6003 0.5 15.9183 0.5 16.2498C0.5 16.5813 0.631696 16.8992 0.866116 17.1336C1.10054 17.3681 1.41848 17.4998 1.75 17.4998H11.75V18.9372L6.0625 22.6872C5.82917 22.8316 5.64985 23.0488 5.55221 23.3053C5.45457 23.5617 5.44404 23.8432 5.52224 24.1062C5.60044 24.3693 5.76303 24.5993 5.98492 24.7607C6.2068 24.9222 6.47566 25.0061 6.75 24.9996C6.99575 25.0025 7.2362 24.9281 7.4375 24.7872L11.75 21.9372V23.7497C11.75 24.0812 11.8817 24.3991 12.1161 24.6335C12.3505 24.868 12.6685 24.9996 13 24.9996C13.3315 24.9996 13.6495 24.868 13.8839 24.6335C14.1183 24.3991 14.25 24.0812 14.25 23.7497V21.9372L18.5625 24.7872C18.7638 24.9281 19.0042 25.0025 19.25 24.9996C19.5171 24.9976 19.7764 24.91 19.9901 24.7499C20.2038 24.5897 20.3606 24.3652 20.4375 24.1095C20.5143 23.8537 20.5073 23.5801 20.4173 23.3286C20.3273 23.0772 20.1592 22.8611 19.9375 22.7122L14.25 18.9622V17.4998H24.25C24.5815 17.4998 24.8995 17.3681 25.1339 17.1336C25.3683 16.8992 25.5 16.5813 25.5 16.2498C25.5 15.9183 25.3683 15.6003 25.1339 15.3659C24.8995 15.1315 24.5815 14.9998 24.25 14.9998ZM20.5 14.9998H5.5V2.49996H20.5V14.9998ZM10.0125 12.8248C10.3457 13.0217 10.7255 13.1255 11.1125 13.1255C11.4995 13.1255 11.8793 13.0217 12.2125 12.8248L15.9625 10.6499C16.2831 10.4531 16.5479 10.1774 16.7316 9.84915C16.9152 9.5209 17.0117 9.15103 17.0117 8.77488C17.0117 8.39873 16.9152 8.02886 16.7316 7.7006C16.5479 7.37234 16.2831 7.09667 15.9625 6.8999L12.2125 4.72493C11.8793 4.5281 11.4995 4.42427 11.1125 4.42427C10.7255 4.42427 10.3457 4.5281 10.0125 4.72493C9.67679 4.91418 9.39848 5.19067 9.20704 5.52513C9.0156 5.85959 8.91815 6.23959 8.925 6.62491V10.9748C8.92709 11.3517 9.02878 11.7213 9.21976 12.0462C9.41075 12.3711 9.68423 12.6397 10.0125 12.8248ZM11.425 7.0999L14.25 8.74988L11.4 10.3999L11.425 7.0999Z" fill="black" fill-opacity="0.5"/>
</svg>
