<svg width="14" height="14" viewBox="0 0 14 14" fill="none" xmlns="http://www.w3.org/2000/svg">
<path d="M13.9124 6.55604C13.8569 6.41294 13.7736 6.28222 13.6673 6.17135L7.83159 0.342824C7.72276 0.234136 7.59357 0.147919 7.45139 0.0890975C7.3092 0.0302756 7.15681 0 7.00291 0C6.6921 0 6.39401 0.123318 6.17423 0.342824C6.06541 0.451513 5.97908 0.580545 5.92019 0.722554C5.8613 0.864563 5.83098 1.01677 5.83098 1.17048C5.83098 1.48091 5.95445 1.77862 6.17423 1.99813L10.0258 5.8333H1.16715C0.857604 5.8333 0.560734 5.95611 0.341851 6.17473C0.122968 6.39334 0 6.68984 0 6.99901C0 7.30817 0.122968 7.60467 0.341851 7.82328C0.560734 8.0419 0.857604 8.16471 1.16715 8.16471H10.0258L6.17423 11.9999C6.06484 12.1083 5.97801 12.2372 5.91875 12.3792C5.8595 12.5213 5.82899 12.6736 5.82899 12.8275C5.82899 12.9814 5.8595 13.1338 5.91875 13.2758C5.97801 13.4179 6.06484 13.5468 6.17423 13.6552C6.28273 13.7644 6.41182 13.8512 6.55405 13.9103C6.69628 13.9695 6.84883 14 7.00291 14C7.15699 14 7.30954 13.9695 7.45177 13.9103C7.594 13.8512 7.72309 13.7644 7.83159 13.6552L13.6673 7.82666C13.7736 7.71579 13.8569 7.58507 13.9124 7.44197C14.0292 7.15817 14.0292 6.83984 13.9124 6.55604Z" fill="white"/>
</svg>
