<svg width="724" height="237" viewBox="0 0 724 237" fill="none" xmlns="http://www.w3.org/2000/svg">
<path d="M59.5505 11.2338C43.0319 13.7188 30.7394 25.422 0.0834961 69.6299V236.121H723.599V28.0072L663.03 44.7805C639.377 51.5735 618.43 62.1751 602.462 62.1751C586.494 62.1751 556.761 0.671638 542.444 0.672852C528.128 0.674065 491.237 55.3415 481.326 53.4778C471.414 51.6141 434.523 26.1435 420.757 23.6585C406.992 21.1736 371.752 69.6299 361.29 72.1148C350.829 74.5997 324.04 53.5621 300.172 41.6743C300.172 41.6743 263.28 16.2037 240.705 14.9612C218.129 13.7188 201.611 81.4333 178.484 79.5696C155.358 77.7059 132.232 73.3573 122.321 66.5237C112.41 59.6901 76.0691 8.7489 59.5505 11.2338Z" fill="#EAF4FF" fill-opacity="0.4"/>
</svg>
