<svg width="26" height="25" viewBox="0 0 26 25" fill="none" xmlns="http://www.w3.org/2000/svg">
<path d="M13.8875 10.9079C13.7686 10.7881 13.6284 10.6942 13.475 10.6316C13.1707 10.5 12.8293 10.5 12.525 10.6316C12.3716 10.6942 12.2314 10.7881 12.1125 10.9079L9.6125 13.5395C9.37712 13.7873 9.24489 14.1233 9.24489 14.4737C9.24489 14.8241 9.37712 15.1601 9.6125 15.4079C9.84788 15.6557 10.1671 15.7949 10.5 15.7949C10.8329 15.7949 11.1521 15.6557 11.3875 15.4079L11.75 15.0132V18.4211C11.75 18.77 11.8817 19.1047 12.1161 19.3515C12.3505 19.5982 12.6685 19.7368 13 19.7368C13.3315 19.7368 13.6495 19.5982 13.8839 19.3515C14.1183 19.1047 14.25 18.77 14.25 18.4211V15.0132L14.6125 15.4079C14.7287 15.5312 14.867 15.6291 15.0193 15.6959C15.1716 15.7627 15.335 15.7971 15.5 15.7971C15.665 15.7971 15.8284 15.7627 15.9807 15.6959C16.133 15.6291 16.2713 15.5312 16.3875 15.4079C16.5047 15.2856 16.5977 15.1401 16.6611 14.9797C16.7246 14.8194 16.7572 14.6474 16.7572 14.4737C16.7572 14.3 16.7246 14.128 16.6611 13.9677C16.5977 13.8073 16.5047 13.6618 16.3875 13.5395L13.8875 10.9079ZM21.75 3.94739H13.9L13.5 2.63161C13.2407 1.85954 12.7597 1.19148 12.1236 0.719977C11.4876 0.248474 10.7279 -0.0031275 9.95 2.93468e-05H4.25C3.25544 2.93468e-05 2.30161 0.415911 1.59835 1.15619C0.895088 1.89646 0.5 2.90049 0.5 3.94739V21.0526C0.5 22.0995 0.895088 23.1036 1.59835 23.8438C2.30161 24.5841 3.25544 25 4.25 25H21.75C22.7446 25 23.6984 24.5841 24.4017 23.8438C25.1049 23.1036 25.5 22.0995 25.5 21.0526V7.89476C25.5 6.84785 25.1049 5.84382 24.4017 5.10355C23.6984 4.36328 22.7446 3.94739 21.75 3.94739ZM23 21.0526C23 21.4016 22.8683 21.7363 22.6339 21.983C22.3995 22.2298 22.0815 22.3684 21.75 22.3684H4.25C3.91848 22.3684 3.60054 22.2298 3.36612 21.983C3.1317 21.7363 3 21.4016 3 21.0526V3.94739C3 3.59842 3.1317 3.26375 3.36612 3.01699C3.60054 2.77023 3.91848 2.63161 4.25 2.63161H9.95C10.2121 2.63089 10.4677 2.71689 10.6808 2.87745C10.8939 3.03801 11.0536 3.265 11.1375 3.52634L11.8125 5.68423C11.8964 5.94558 12.0561 6.17257 12.2692 6.33312C12.4823 6.49368 12.7379 6.57968 13 6.57897H21.75C22.0815 6.57897 22.3995 6.7176 22.6339 6.96435C22.8683 7.21111 23 7.54579 23 7.89476V21.0526Z" fill="#1640C1"/>
</svg>
