<svg width="24" height="22" viewBox="0 0 24 22" fill="none" xmlns="http://www.w3.org/2000/svg">
<path d="M11.8879 0.340088C9.53799 0.340088 7.2408 0.962517 5.28689 2.12866C3.33297 3.29481 1.81007 4.9523 0.910785 6.89153C0.0114958 8.83076 -0.223799 10.9646 0.234654 13.0233C0.693108 15.082 1.82472 16.973 3.48639 18.4572C5.14806 19.9415 7.26516 20.9522 9.56996 21.3617C11.8748 21.7712 14.2638 21.5611 16.4348 20.7578C18.6059 19.9545 20.4616 18.5943 21.7671 16.849C23.0727 15.1037 23.7695 13.0519 23.7695 10.9529C23.766 8.13914 22.5131 5.44156 20.2856 3.45196C18.0582 1.46235 15.0381 0.343217 11.8879 0.340088ZM11.8879 19.4431C10.008 19.4431 8.17023 18.9451 6.6071 18.0122C5.04396 17.0793 3.82565 15.7533 3.10622 14.2019C2.38679 12.6505 2.19855 10.9434 2.56531 9.29651C2.93208 7.64956 3.83736 6.13675 5.1667 4.94937C6.49604 3.76199 8.18972 2.95338 10.0336 2.62578C11.8774 2.29818 13.7886 2.46632 15.5255 3.10892C17.2623 3.75153 18.7468 4.83974 19.7913 6.23595C20.8357 7.63216 21.3932 9.27366 21.3932 10.9529C21.3903 13.2038 20.388 15.3618 18.606 16.9535C16.824 18.5452 14.408 19.4405 11.8879 19.4431ZM14.3809 8.44166L13.0761 9.11481V5.64648C13.0761 5.36501 12.9509 5.09507 12.7281 4.89604C12.5053 4.69701 12.2031 4.5852 11.8879 4.5852C11.5728 4.5852 11.2706 4.69701 11.0478 4.89604C10.825 5.09507 10.6998 5.36501 10.6998 5.64648V10.9529C10.6998 11.1391 10.7548 11.3221 10.8591 11.4834C10.9633 11.6448 11.1133 11.7787 11.2939 11.8719C11.4745 11.965 11.6794 12.0141 11.8879 12.0141C12.0965 12.0142 12.3014 11.9652 12.482 11.8722L15.569 10.2802C15.7043 10.2106 15.8228 10.1178 15.9179 10.0072C16.013 9.89666 16.0828 9.77043 16.1232 9.63576C16.1637 9.50108 16.174 9.36061 16.1537 9.22236C16.1333 9.08412 16.0827 8.9508 16.0047 8.83004C15.9266 8.70928 15.8227 8.60343 15.6989 8.51855C15.575 8.43367 15.4336 8.37142 15.2829 8.33535C15.1321 8.29929 14.9748 8.29011 14.82 8.30835C14.6653 8.32659 14.516 8.37189 14.3809 8.44166Z" fill="black"/>
</svg>
