<svg width="725" height="82" viewBox="0 0 725 82" fill="none" xmlns="http://www.w3.org/2000/svg">
<path d="M0.963379 69.9952C25.2386 36.8502 46.2459 10.7077 61.1845 11.6414C76.1231 12.575 108.801 56.4571 123.74 67.661C138.678 78.865 164.354 81.1991 180.693 81.1991C197.032 81.1991 225.042 15.376 241.381 15.376C257.72 15.376 295.444 37.0697 301.135 42.4522C306.826 47.8347 351.407 71.0204 362.29 72.7962C373.174 74.5719 400.57 23.779 420.644 23.779C440.718 23.779 466.86 54.1229 482.732 54.1229C498.605 54.1229 528.949 1.37109 542.954 1.37109C556.958 1.37109 583.568 62.9927 602.708 62.9927C621.848 62.9927 651.258 49.9215 664.33 46.1868C677.401 42.4522 724.084 29.8478 724.084 29.8478" stroke="#0061FF" stroke-width="0.933661"/>
</svg>
