<svg width="24" height="24" viewBox="0 0 24 24" fill="none" xmlns="http://www.w3.org/2000/svg">
<path d="M8.9796 7.44761H16.6463C16.9852 7.44761 17.3102 7.32645 17.5498 7.11078C17.7894 6.89511 17.924 6.60261 17.924 6.29761C17.924 5.99261 17.7894 5.7001 17.5498 5.48443C17.3102 5.26877 16.9852 5.14761 16.6463 5.14761H8.9796C8.64071 5.14761 8.31571 5.26877 8.07608 5.48443C7.83645 5.7001 7.70182 5.99261 7.70182 6.29761C7.70182 6.60261 7.83645 6.89511 8.07608 7.11078C8.31571 7.32645 8.64071 7.44761 8.9796 7.44761ZM6.42405 12.0476H16.6463C16.9852 12.0476 17.3102 11.9264 17.5498 11.7108C17.7894 11.4951 17.924 11.2026 17.924 10.8976C17.924 10.5926 17.7894 10.3001 17.5498 10.0844C17.3102 9.86877 16.9852 9.74761 16.6463 9.74761H6.42405C6.08516 9.74761 5.76015 9.86877 5.52052 10.0844C5.28089 10.3001 5.14627 10.5926 5.14627 10.8976C5.14627 11.2026 5.28089 11.4951 5.52052 11.7108C5.76015 11.9264 6.08516 12.0476 6.42405 12.0476ZM6.42405 16.6476H16.6463C16.9852 16.6476 17.3102 16.5264 17.5498 16.3108C17.7894 16.0951 17.924 15.8026 17.924 15.4976C17.924 15.1926 17.7894 14.9001 17.5498 14.6844C17.3102 14.4688 16.9852 14.3476 16.6463 14.3476H6.42405C6.08516 14.3476 5.76015 14.4688 5.52052 14.6844C5.28089 14.9001 5.14627 15.1926 5.14627 15.4976C5.14627 15.8026 5.28089 16.0951 5.52052 16.3108C5.76015 16.5264 6.08516 16.6476 6.42405 16.6476ZM21.7574 0.547607H1.31293C0.974046 0.547607 0.649038 0.668768 0.409409 0.884435C0.169779 1.1001 0.0351563 1.39261 0.0351562 1.69761V22.3976C0.0351562 22.6112 0.101236 22.8205 0.225991 23.0022C0.350747 23.1839 0.529248 23.3307 0.741494 23.4262C0.953741 23.5217 1.19135 23.5621 1.42769 23.543C1.66403 23.5238 1.88976 23.4457 2.0796 23.3176L4.7246 21.5351L7.35682 23.3176C7.578 23.4669 7.84702 23.5476 8.12349 23.5476C8.39996 23.5476 8.66898 23.4669 8.89016 23.3176L11.5352 21.5351L14.1802 23.3176C14.4013 23.4669 14.6704 23.5476 14.9468 23.5476C15.2233 23.5476 15.4923 23.4669 15.7135 23.3176L18.3457 21.5351L20.9907 23.3176C21.1815 23.4456 21.4081 23.523 21.6452 23.5413C21.8822 23.5596 22.1202 23.518 22.3324 23.4211C22.5431 23.3255 22.7203 23.1793 22.8444 22.9987C22.9684 22.818 23.0344 22.61 23.0352 22.3976V1.69761C23.0352 1.39261 22.9005 1.1001 22.6609 0.884435C22.4213 0.668768 22.0963 0.547607 21.7574 0.547607ZM20.4796 20.0976L19.1124 19.1776C18.8912 19.0283 18.6222 18.9476 18.3457 18.9476C18.0692 18.9476 17.8002 19.0283 17.579 19.1776L14.9468 20.9601L12.3018 19.1776C12.0806 19.0283 11.8116 18.9476 11.5352 18.9476C11.2587 18.9476 10.9897 19.0283 10.7685 19.1776L8.12349 20.9601L5.49127 19.1776C5.27009 19.0283 5.00107 18.9476 4.7246 18.9476C4.44813 18.9476 4.17911 19.0283 3.95793 19.1776L2.59071 20.0976V2.84761H20.4796V20.0976Z" fill="black"/>
</svg>
