<svg width="21" height="21" viewBox="0 0 26 25" fill="black" fill-opacity="0.5"  xmlns="http://www.w3.org/2000/svg">
<path d="M21.75 12.5H13V3.75C13 3 12.5 2.5 11.75 2.5C5.5 2.5 0.5 7.5 0.5 13.75C0.5 20 5.5 25 11.75 25C18 25 23 20 23 13.75C23 13 22.5 12.5 21.75 12.5ZM13 22.375C8.25 23.125 3.75 19.75 3.125 15C2.375 10.25 5.75 5.75 10.5 5.125V13.75C10.5 14.5 11 15 11.75 15H20.375C19.875 18.875 16.875 21.875 13 22.375ZM16.75 0C16 0 15.5 0.5 15.5 1.25V8.75C15.5 9.5 16 10 16.75 10H24.25C25 10 25.5 9.5 25.5 8.75C25.5 3.875 21.625 0 16.75 0ZM18 7.5V2.625C20.5 3.125 22.375 5 22.875 7.5H18Z" />
</svg>
