<svg width="18" height="18" viewBox="0 0 18 18" fill="none" xmlns="http://www.w3.org/2000/svg">
<path d="M7.31286 14.001C7.55848 14.001 7.79404 13.9132 7.96772 13.7569C8.14139 13.6006 8.23897 13.3886 8.23897 13.1675V8.16654C8.23897 7.94548 8.14139 7.73348 7.96772 7.57717C7.79404 7.42085 7.55848 7.33304 7.31286 7.33304C7.06724 7.33304 6.83168 7.42085 6.658 7.57717C6.48432 7.73348 6.38674 7.94548 6.38674 8.16654V13.1675C6.38674 13.3886 6.48432 13.6006 6.658 13.7569C6.83168 13.9132 7.06724 14.001 7.31286 14.001ZM16.574 3.99904H12.8695V3.16554C12.8695 2.50237 12.5768 1.86635 12.0558 1.39742C11.5347 0.928484 10.828 0.665039 10.0912 0.665039H8.23897C7.50211 0.665039 6.79543 0.928484 6.27439 1.39742C5.75335 1.86635 5.46063 2.50237 5.46063 3.16554V3.99904H1.75619C1.51057 3.99904 1.27501 4.08685 1.10133 4.24317C0.92765 4.39948 0.830078 4.61148 0.830078 4.83254C0.830078 5.0536 0.92765 5.2656 1.10133 5.42191C1.27501 5.57822 1.51057 5.66604 1.75619 5.66604H2.6823V14.8345C2.6823 15.4977 2.97502 16.1337 3.49606 16.6027C4.01709 17.0716 4.72377 17.335 5.46063 17.335H12.8695C13.6064 17.335 14.3131 17.0716 14.8341 16.6027C15.3551 16.1337 15.6479 15.4977 15.6479 14.8345V5.66604H16.574C16.8196 5.66604 17.0551 5.57822 17.2288 5.42191C17.4025 5.2656 17.5001 5.0536 17.5001 4.83254C17.5001 4.61148 17.4025 4.39948 17.2288 4.24317C17.0551 4.08685 16.8196 3.99904 16.574 3.99904ZM7.31286 3.16554C7.31286 2.94448 7.41043 2.73248 7.58411 2.57617C7.75779 2.41985 7.99335 2.33204 8.23897 2.33204H10.0912C10.3368 2.33204 10.5724 2.41985 10.746 2.57617C10.9197 2.73248 11.0173 2.94448 11.0173 3.16554V3.99904H7.31286V3.16554ZM13.7956 14.8345C13.7956 15.0556 13.6981 15.2676 13.5244 15.4239C13.3507 15.5802 13.1151 15.668 12.8695 15.668H5.46063C5.21501 15.668 4.97945 15.5802 4.80577 15.4239C4.63209 15.2676 4.53452 15.0556 4.53452 14.8345V5.66604H13.7956V14.8345ZM11.0173 14.001C11.2629 14.001 11.4985 13.9132 11.6722 13.7569C11.8458 13.6006 11.9434 13.3886 11.9434 13.1675V8.16654C11.9434 7.94548 11.8458 7.73348 11.6722 7.57717C11.4985 7.42085 11.2629 7.33304 11.0173 7.33304C10.7717 7.33304 10.5361 7.42085 10.3624 7.57717C10.1888 7.73348 10.0912 7.94548 10.0912 8.16654V13.1675C10.0912 13.3886 10.1888 13.6006 10.3624 13.7569C10.5361 13.9132 10.7717 14.001 11.0173 14.001Z" fill="#424866"/>
</svg>
